<?xml version="1.0" encoding="UTF-8"?>
<!DOCTYPE svg PUBLIC "-//W3C//DTD SVG 1.1//EN" "http://www.w3.org/Graphics/SVG/1.1/DTD/svg11.dtd">
<svg xmlns="http://www.w3.org/2000/svg" version="1.1" width="55px" height="76px" style="shape-rendering:geometricPrecision; text-rendering:geometricPrecision; image-rendering:optimizeQuality; fill-rule:evenodd; clip-rule:evenodd" xmlns:xlink="http://www.w3.org/1999/xlink">
<g><path style="opacity:0.098" fill="#5f0c0f" d="M 29.5,0.5 C 29.5,0.166667 29.5,-0.166667 29.5,-0.5C 30.5,-0.5 31.5,-0.5 32.5,-0.5C 32.5,0.166667 32.5,0.833333 32.5,1.5C 31.609,0.890217 30.609,0.556884 29.5,0.5 Z"/></g>
<g><path style="opacity:0.559" fill="#de1c22" d="M 29.5,0.5 C 30.609,0.556884 31.609,0.890217 32.5,1.5C 35.4343,2.28938 37.2676,4.28938 38,7.5C 39.2547,8.21063 40.4214,9.04396 41.5,10C 41.1667,10.3333 40.8333,10.6667 40.5,11C 41.448,11.4828 42.448,11.6495 43.5,11.5C 43.0296,17.8609 46.0296,20.6942 52.5,20C 53.0659,20.9947 53.7326,21.828 54.5,22.5C 54.5,23.8333 54.5,25.1667 54.5,26.5C 52.2818,28.3737 49.9485,30.207 47.5,32C 48.8333,32.6667 48.8333,33.3333 47.5,34C 46,34.5 44.5,35 43,35.5C 41.2247,33.0063 39.7247,33.3397 38.5,36.5C 43.4458,40.7792 48.1125,45.4458 52.5,50.5C 49.513,54.2872 46.1797,57.7872 42.5,61C 47.3378,62.2826 47.6711,64.1159 43.5,66.5C 43.44,65.9569 43.1067,65.6236 42.5,65.5C 41.2267,66.2565 41.2267,66.9232 42.5,67.5C 42.1025,70.4463 41.1025,73.113 39.5,75.5C 38.8333,75.5 38.1667,75.5 37.5,75.5C 33.292,71.3081 28.4586,68.9747 23,68.5C 21.9207,70.3937 20.5874,70.727 19,69.5C 17.0121,59.0809 20.8454,51.9142 30.5,48C 28.6763,43.5138 25.343,41.5138 20.5,42C 19,39.1667 16.8333,37 14,35.5C 12.3333,37.1667 10.6667,38.8333 9,40.5C 7.14823,35.977 4.48156,31.977 1,28.5C 0.617425,29.056 0.117425,29.3893 -0.5,29.5C -0.5,28.1667 -0.5,26.8333 -0.5,25.5C 0.873441,25.6567 2.20677,25.49 3.5,25C 4.4533,23.0448 5.78663,21.3782 7.5,20C 11.8134,20.245 16.1468,20.245 20.5,20C 22.8867,15.9466 26.22,12.9466 30.5,11C 29.5042,8.68374 28.5042,6.3504 27.5,4C 27.8082,2.54053 28.4749,1.37386 29.5,0.5 Z"/></g>
<g><path style="opacity:0.125" fill="#1d0702" d="M 43.5,66.5 C 42.8333,66.5 42.5,66.8333 42.5,67.5C 41.2267,66.9232 41.2267,66.2565 42.5,65.5C 43.1067,65.6236 43.44,65.9569 43.5,66.5 Z"/></g>
</svg>
