<?xml version="1.0" encoding="UTF-8"?>
<!DOCTYPE svg PUBLIC "-//W3C//DTD SVG 1.1//EN" "http://www.w3.org/Graphics/SVG/1.1/DTD/svg11.dtd">
<svg xmlns="http://www.w3.org/2000/svg" version="1.1" width="55px" height="33px" style="shape-rendering:geometricPrecision; text-rendering:geometricPrecision; image-rendering:optimizeQuality; fill-rule:evenodd; clip-rule:evenodd" xmlns:xlink="http://www.w3.org/1999/xlink">
<g><path style="opacity:0.56" fill="#de1c22" d="M 9.5,-0.5 C 10.8333,-0.5 12.1667,-0.5 13.5,-0.5C 13.5858,1.39363 13.9191,3.39363 14.5,5.5C 18.296,6.14705 21.1293,8.14705 23,11.5C 24.8836,10.0231 26.8836,8.68981 29,7.5C 30.7246,-0.0093428 34.5579,-1.34268 40.5,3.5C 42.0983,2.51529 43.765,2.34862 45.5,3C 46.8621,5.03439 47.8621,7.20106 48.5,9.5C 49.8333,9.5 51.1667,9.5 52.5,9.5C 52.1568,11.4832 52.8235,12.8166 54.5,13.5C 54.5,14.5 54.5,15.5 54.5,16.5C 52.9572,17.7358 51.9572,19.4024 51.5,21.5C 48.4074,21.9981 45.5741,22.9981 43,24.5C 36.8457,23.8738 30.679,22.7072 24.5,21C 21.3519,24.2043 19.3519,28.0377 18.5,32.5C 18.1667,32.5 17.8333,32.5 17.5,32.5C 16.8333,31.1667 16.1667,31.1667 15.5,32.5C 13.8333,32.5 12.1667,32.5 10.5,32.5C 9.08134,31.5489 7.41467,31.2155 5.5,31.5C 5.5,30.1667 5.5,28.8333 5.5,27.5C 3.28411,27.7254 1.61744,26.8921 0.5,25C 0.282836,22.8068 0.616169,20.4734 1.5,18C 1.36126,16.699 0.694594,15.8656 -0.5,15.5C -0.5,15.1667 -0.5,14.8333 -0.5,14.5C 0.77943,12.8767 2.11276,11.21 3.5,9.5C 4.16667,9.83333 4.83333,10.1667 5.5,10.5C 6.31844,7.89293 6.81844,5.22626 7,2.5C 7.69794,1.30943 8.53128,0.309426 9.5,-0.5 Z"/></g>
</svg>
