<?xml version="1.0" encoding="UTF-8"?>
<!DOCTYPE svg PUBLIC "-//W3C//DTD SVG 1.1//EN" "http://www.w3.org/Graphics/SVG/1.1/DTD/svg11.dtd">
<svg xmlns="http://www.w3.org/2000/svg" version="1.1" width="56px" height="51px" style="shape-rendering:geometricPrecision; text-rendering:geometricPrecision; image-rendering:optimizeQuality; fill-rule:evenodd; clip-rule:evenodd" xmlns:xlink="http://www.w3.org/1999/xlink">
<g><path style="opacity:0.56" fill="#e11c22" d="M 33.5,-0.5 C 33.8333,-0.5 34.1667,-0.5 34.5,-0.5C 34.5,0.166667 34.8333,0.5 35.5,0.5C 36.5676,1.43448 37.901,1.76781 39.5,1.5C 39.2053,3.73535 39.5386,5.73535 40.5,7.5C 42.5061,8.51075 44.5061,9.51075 46.5,10.5C 48.9476,9.62463 51.2809,9.29129 53.5,9.5C 54.1818,10.2427 54.8485,10.9094 55.5,11.5C 55.5,11.8333 55.5,12.1667 55.5,12.5C 54.2438,12.4614 53.2438,12.9614 52.5,14C 53.7472,15.4936 53.7472,16.9936 52.5,18.5C 47.0154,20.7431 41.682,23.2431 36.5,26C 33.1667,31 29.8333,36 26.5,41C 25.1279,41.4017 23.7946,41.9017 22.5,42.5C 19.2548,47.0167 14.9215,49.6834 9.5,50.5C 7.5,50.5 5.5,50.5 3.5,50.5C 2.32855,49.6554 0.995216,48.9887 -0.5,48.5C -0.5,47.8333 -0.5,47.1667 -0.5,46.5C 0.921673,46.2914 2.25501,45.7914 3.5,45C 3.04107,43.0573 4.04107,41.724 6.5,41C 4.69692,40.3632 3.36359,39.1965 2.5,37.5C 3.33529,26.1456 4.50196,14.8123 6,3.5C 6.67076,4.25244 7.5041,4.58577 8.5,4.5C 9.70951,4.06795 10.7095,3.40128 11.5,2.5C 16.7266,3.86222 21.5599,6.19555 26,9.5C 27.1316,7.66081 27.9649,5.66081 28.5,3.5C 28.0233,2.52242 27.3567,1.68909 26.5,1C 29.0356,0.813823 31.369,0.313823 33.5,-0.5 Z"/></g>
<g><path style="opacity:0.537" fill="#52120f" d="M 11.5,2.5 C 10.7095,3.40128 9.70951,4.06795 8.5,4.5C 8.63216,1.99309 9.63216,1.32642 11.5,2.5 Z"/></g>
<g><path style="opacity:0.169" fill="#6e1313" d="M 35.5,0.5 C 37.1667,0.5 38.8333,0.5 40.5,0.5C 40.5,2.83333 40.5,5.16667 40.5,7.5C 39.5386,5.73535 39.2053,3.73535 39.5,1.5C 37.901,1.76781 36.5676,1.43448 35.5,0.5 Z"/></g>
</svg>
