<?xml version="1.0" encoding="UTF-8"?>
<!DOCTYPE svg PUBLIC "-//W3C//DTD SVG 1.1//EN" "http://www.w3.org/Graphics/SVG/1.1/DTD/svg11.dtd">
<svg xmlns="http://www.w3.org/2000/svg" version="1.1" width="53px" height="52px" style="shape-rendering:geometricPrecision; text-rendering:geometricPrecision; image-rendering:optimizeQuality; fill-rule:evenodd; clip-rule:evenodd" xmlns:xlink="http://www.w3.org/1999/xlink">
<g><path style="opacity:0.559" fill="#e01c22" d="M 10.5,-0.5 C 11.8333,-0.5 13.1667,-0.5 14.5,-0.5C 16.6664,1.83673 18.6664,4.33673 20.5,7C 31.4156,15.9456 42.0823,25.1123 52.5,34.5C 52.5,34.8333 52.5,35.1667 52.5,35.5C 51.1882,37.641 49.3549,39.3076 47,40.5C 46.6909,42.807 45.8576,44.9737 44.5,47C 39.8921,48.0346 35.5588,49.5346 31.5,51.5C 30.5,51.5 29.5,51.5 28.5,51.5C 28.5792,50.0695 28.2458,48.7362 27.5,47.5C 29.8379,45.9507 29.3379,44.9507 26,44.5C 22.4136,45.9794 19.247,45.3128 16.5,42.5C 15.5258,40.2573 15.1924,37.924 15.5,35.5C 13.0971,35.552 10.7638,35.2186 8.5,34.5C 8.67158,33.5084 8.33825,32.8417 7.5,32.5C 3.80708,30.1779 4.30708,28.1779 9,26.5C 10.713,23.7342 12.5463,21.0675 14.5,18.5C 14.0269,17.0937 13.0269,16.427 11.5,16.5C 7.90459,12.5915 3.90459,9.25815 -0.5,6.5C -0.5,6.16667 -0.5,5.83333 -0.5,5.5C 1.12879,4.37471 2.62879,3.04138 4,1.5C 6.70867,3.66138 8.87534,2.99471 10.5,-0.5 Z"/></g>
<g><path style="opacity:0.537" fill="#581511" d="M 11.5,16.5 C 13.0269,16.427 14.0269,17.0937 14.5,18.5C 12.9731,18.573 11.9731,17.9063 11.5,16.5 Z"/></g>
<g><path style="opacity:0.098" fill="#49100c" d="M 7.5,32.5 C 8.33825,32.8417 8.67158,33.5084 8.5,34.5C 8.10343,35.525 7.43677,35.6917 6.5,35C 7.25244,34.3292 7.58577,33.4959 7.5,32.5 Z"/></g>
</svg>
