<?xml version="1.0" encoding="UTF-8"?>
<!DOCTYPE svg PUBLIC "-//W3C//DTD SVG 1.1//EN" "http://www.w3.org/Graphics/SVG/1.1/DTD/svg11.dtd">
<svg xmlns="http://www.w3.org/2000/svg" version="1.1" width="75px" height="39px" style="shape-rendering:geometricPrecision; text-rendering:geometricPrecision; image-rendering:optimizeQuality; fill-rule:evenodd; clip-rule:evenodd" xmlns:xlink="http://www.w3.org/1999/xlink">
<g><path style="opacity:0.56" fill="#df1c22" d="M 12.5,-0.5 C 13.1667,-0.5 13.8333,-0.5 14.5,-0.5C 14.5,-0.166667 14.5,0.166667 14.5,0.5C 15.9179,2.30794 17.9179,2.97461 20.5,2.5C 23.9583,3.73493 26.9583,5.73493 29.5,8.5C 30.8333,7.16667 32.1667,7.16667 33.5,8.5C 34.2697,6.72817 35.6031,5.72817 37.5,5.5C 40.1454,6.10759 42.8121,6.60759 45.5,7C 46.7451,9.65677 48.7451,11.4901 51.5,12.5C 54.7012,11.547 57.7012,10.2137 60.5,8.5C 65.2159,9.75233 69.8826,11.7523 74.5,14.5C 74.5,15.8333 74.5,17.1667 74.5,18.5C 72.3867,20.691 70.7201,23.3576 69.5,26.5C 67.9936,27.7472 66.4936,27.7472 65,26.5C 63.9787,29.1051 63.1454,31.7717 62.5,34.5C 60.812,35.5213 59.4787,36.8546 58.5,38.5C 57.5,38.5 56.5,38.5 55.5,38.5C 54.8333,37.1667 54.1667,37.1667 53.5,38.5C 52.8333,38.5 52.1667,38.5 51.5,38.5C 50.7003,36.3175 49.2003,34.6508 47,33.5C 45.1516,36.0414 42.6516,37.0414 39.5,36.5C 41.2413,27.0754 38.408,25.4087 31,31.5C 29,30.8333 27,30.1667 25,29.5C 23.8333,27.6667 22.6667,25.8333 21.5,24C 23.2112,22.8668 23.7112,21.3668 23,19.5C 18.7401,21.0507 14.5734,22.7173 10.5,24.5C 10.6602,22.8008 10.4935,21.1341 10,19.5C 7.36291,17.109 4.52957,15.109 1.5,13.5C 1.5,12.8333 1.5,12.1667 1.5,11.5C 3.33897,7.51003 6.50564,5.17669 11,4.5C 11.6077,2.84552 12.1077,1.17885 12.5,-0.5 Z"/></g>
<g><path style="opacity:0.227" fill="#5d1211" d="M 14.5,0.5 C 16.6264,1.04816 18.6264,1.71482 20.5,2.5C 17.9179,2.97461 15.9179,2.30794 14.5,0.5 Z"/></g>
<g><path style="opacity:0.424" fill="#340e07" d="M 1.5,11.5 C 1.5,12.1667 1.5,12.8333 1.5,13.5C 0.833333,13.5 0.166667,13.5 -0.5,13.5C -0.5,13.1667 -0.5,12.8333 -0.5,12.5C 0.166667,12.1667 0.833333,11.8333 1.5,11.5 Z"/></g>
</svg>
