<?xml version="1.0" encoding="UTF-8"?>
<!DOCTYPE svg PUBLIC "-//W3C//DTD SVG 1.1//EN" "http://www.w3.org/Graphics/SVG/1.1/DTD/svg11.dtd">
<svg xmlns="http://www.w3.org/2000/svg" version="1.1" width="74px" height="62px" style="shape-rendering:geometricPrecision; text-rendering:geometricPrecision; image-rendering:optimizeQuality; fill-rule:evenodd; clip-rule:evenodd" xmlns:xlink="http://www.w3.org/1999/xlink">
<g><path style="opacity:0.105" fill="#110201" d="M 45.5,-0.5 C 46.1667,-0.5 46.8333,-0.5 47.5,-0.5C 46.8333,0.833333 45.8333,1.83333 44.5,2.5C 44.5,1.83333 44.5,1.16667 44.5,0.5C 45.1667,0.5 45.5,0.166667 45.5,-0.5 Z"/></g>
<g><path style="opacity:0.559" fill="#e51c22" d="M 31.5,-0.5 C 33.8333,-0.5 36.1667,-0.5 38.5,-0.5C 40.2646,0.461384 42.2646,0.794717 44.5,0.5C 44.5,1.16667 44.5,1.83333 44.5,2.5C 44.5,3.16667 44.5,3.83333 44.5,4.5C 45.8111,7.13309 47.3111,7.13309 49,4.5C 49.2321,5.73747 49.7321,6.73747 50.5,7.5C 55.7813,14.7735 60.6147,22.4401 65,30.5C 67.5014,33.601 70.3347,36.2677 73.5,38.5C 73.5,39.1667 73.5,39.8333 73.5,40.5C 68.9263,41.8092 64.2596,42.8092 59.5,43.5C 56.6122,42.9898 54.2789,43.6565 52.5,45.5C 52.6925,49.9865 51.3592,53.9865 48.5,57.5C 47.8333,57.1667 47.1667,56.8333 46.5,56.5C 45.6781,58.1386 45.0114,59.8053 44.5,61.5C 43.5,61.5 42.5,61.5 41.5,61.5C 40.0425,59.9892 38.2092,58.9892 36,58.5C 35.6577,56.1817 36.1577,54.015 37.5,52C 33.5395,49.638 29.2062,48.4714 24.5,48.5C 23.9243,42.2946 20.591,39.2946 14.5,39.5C 14.117,35.6458 12.117,34.3125 8.5,35.5C 7.66667,33.5 6.83333,31.5 6,29.5C 4.98873,28.6634 3.82207,28.33 2.5,28.5C 2.5,27.1667 2.5,25.8333 2.5,24.5C 2.21781,23.2223 1.55114,22.2223 0.5,21.5C 0.67158,20.5084 0.338246,19.8417 -0.5,19.5C -0.5,18.8333 -0.5,18.1667 -0.5,17.5C 2.89878,16.3662 6.23211,15.0329 9.5,13.5C 10.3507,11.1184 11.684,9.11843 13.5,7.5C 14.086,7.70931 14.586,8.04265 15,8.5C 16.1939,7.56974 17.5272,6.90307 19,6.5C 19.3491,7.47251 20.1824,8.30584 21.5,9C 22.7494,9.74012 23.7494,9.57346 24.5,8.5C 26.403,8.20414 28.0697,7.53747 29.5,6.5C 30.1667,4.16667 30.8333,1.83333 31.5,-0.5 Z"/></g>
<g><path style="opacity:0.537" fill="#8e1517" d="M 50.5,7.5 C 49.7321,6.73747 49.2321,5.73747 49,4.5C 47.3111,7.13309 45.8111,7.13309 44.5,4.5C 45.1499,4.80393 45.8165,5.13727 46.5,5.5C 48.5083,2.0052 51.175,1.5052 54.5,4C 52.6813,4.74026 51.3479,5.90693 50.5,7.5 Z"/></g>
<g><path style="opacity:0.431" fill="#5f1210" d="M 29.5,6.5 C 28.0697,7.53747 26.403,8.20414 24.5,8.5C 25.6354,6.78679 27.302,6.12012 29.5,6.5 Z"/></g>
<g><path style="opacity:0.459" fill="#6e1213" d="M 60.5,12.5 C 61.209,11.596 62.209,11.2627 63.5,11.5C 63.6495,12.552 63.4828,13.552 63,14.5C 62.2917,13.6195 61.4584,12.9528 60.5,12.5 Z"/></g>
<g><path style="opacity:0.369" fill="#47120e" d="M -0.5,21.5 C -0.166667,21.5 0.166667,21.5 0.5,21.5C 1.55114,22.2223 2.21781,23.2223 2.5,24.5C 1.60895,23.8902 0.608953,23.5569 -0.5,23.5C -0.5,22.8333 -0.5,22.1667 -0.5,21.5 Z"/></g>
<g><path style="opacity:0.439" fill="#801614" d="M 59.5,43.5 C 57.2854,44.2679 54.9521,44.9346 52.5,45.5C 54.2789,43.6565 56.6122,42.9898 59.5,43.5 Z"/></g>
</svg>
