<?xml version="1.0" encoding="UTF-8"?>
<!DOCTYPE svg PUBLIC "-//W3C//DTD SVG 1.1//EN" "http://www.w3.org/Graphics/SVG/1.1/DTD/svg11.dtd">
<svg xmlns="http://www.w3.org/2000/svg" version="1.1" width="95px" height="75px" style="shape-rendering:geometricPrecision; text-rendering:geometricPrecision; image-rendering:optimizeQuality; fill-rule:evenodd; clip-rule:evenodd" xmlns:xlink="http://www.w3.org/1999/xlink">
<g><path style="opacity:0.56" fill="#e41c22" d="M 80.5,-0.5 C 81.1667,-0.5 81.8333,-0.5 82.5,-0.5C 83.1098,0.391047 83.4431,1.39105 83.5,2.5C 82.5291,3.96209 82.8624,5.29542 84.5,6.5C 84.5569,7.60895 84.8902,8.60895 85.5,9.5C 85.5,10.1667 85.1667,10.5 84.5,10.5C 83.6618,10.8417 83.3284,11.5084 83.5,12.5C 83.5,12.8333 83.5,13.1667 83.5,13.5C 84.4558,14.6594 85.4558,15.8261 86.5,17C 86.3552,17.772 86.0219,18.4387 85.5,19C 86.5156,19.5194 87.1822,20.3527 87.5,21.5C 86.772,23.1547 86.6053,24.8214 87,26.5C 88.7911,30.4387 91.2911,33.772 94.5,36.5C 94.5,37.5 94.5,38.5 94.5,39.5C 93.5178,40.1408 92.5178,40.8075 91.5,41.5C 89.1999,41.1321 87.0333,41.1321 85,41.5C 84.0723,43.3348 82.9056,43.6682 81.5,42.5C 75.8039,45.0333 70.8039,48.5333 66.5,53C 67.2853,55.4429 67.1186,57.9429 66,60.5C 63.6272,58.1499 61.1272,57.9833 58.5,60C 59.1305,62.8155 58.4638,65.4822 56.5,68C 50.971,68.0842 45.6377,69.0842 40.5,71C 38.9069,71.9487 37.5736,73.1154 36.5,74.5C 36.1667,74.5 35.8333,74.5 35.5,74.5C 33.6309,73.8354 31.6309,73.1687 29.5,72.5C 28.1851,70.6841 26.6851,69.0175 25,67.5C 23.4345,68.0606 22.1011,67.3939 21,65.5C 20.5065,63.8659 20.3398,62.1992 20.5,60.5C 22.1033,60.6882 23.4366,60.1882 24.5,59C 22.7254,57.5611 20.7254,56.5611 18.5,56C 19.8045,55.196 20.4712,54.0293 20.5,52.5C 20.0884,49.1698 18.9217,46.1698 17,43.5C 12.2022,44.553 7.36883,44.3863 2.5,43C 1.39127,41.1239 0.391268,39.2905 -0.5,37.5C -0.5,36.8333 -0.5,36.1667 -0.5,35.5C 0.833333,34.8333 0.833333,34.1667 -0.5,33.5C -0.5,32.8333 -0.5,32.1667 -0.5,31.5C 1.55805,27.71 3.39139,23.71 5,19.5C 6.16667,18.3333 7.33333,17.1667 8.5,16C 11.6919,15.8029 14.6919,14.9696 17.5,13.5C 21.297,14.6054 25.1303,14.6054 29,13.5C 33.3673,13.9667 37.5339,15.1334 41.5,17C 44.3022,21.4406 46.9689,25.9406 49.5,30.5C 51.6106,31.9488 53.9439,32.9488 56.5,33.5C 59.2824,30.1347 62.1157,26.8014 65,23.5C 63.9536,19.6704 63.1203,15.6704 62.5,11.5C 61.1667,11.5 59.8333,11.5 58.5,11.5C 59.0262,5.35742 61.8595,4.02408 67,7.5C 68.3431,6.7865 69.6764,7.11983 71,8.5C 72.8705,6.78113 75.0372,5.78113 77.5,5.5C 78.044,3.28447 79.044,1.28447 80.5,-0.5 Z"/></g>
<g><path style="opacity:0.557" fill="#4e0f0d" d="M 83.5,2.5 C 85.1376,3.70458 85.4709,5.03791 84.5,6.5C 82.8624,5.29542 82.5291,3.96209 83.5,2.5 Z"/></g>
<g><path style="opacity:0.478" fill="#831715" d="M 85.5,9.5 C 88.8678,10.0748 89.3678,11.7415 87,14.5C 85.9887,13.6634 84.8221,13.33 83.5,13.5C 83.5,13.1667 83.5,12.8333 83.5,12.5C 85.6977,12.5912 86.0311,11.9245 84.5,10.5C 85.1667,10.5 85.5,10.1667 85.5,9.5 Z"/></g>
</svg>
