<?xml version="1.0" encoding="UTF-8"?>
<!DOCTYPE svg PUBLIC "-//W3C//DTD SVG 1.1//EN" "http://www.w3.org/Graphics/SVG/1.1/DTD/svg11.dtd">
<svg xmlns="http://www.w3.org/2000/svg" version="1.1" width="71px" height="82px" style="shape-rendering:geometricPrecision; text-rendering:geometricPrecision; image-rendering:optimizeQuality; fill-rule:evenodd; clip-rule:evenodd" xmlns:xlink="http://www.w3.org/1999/xlink">
<g><path style="opacity:0.56" fill="#e01c22" d="M 7.5,-0.5 C 8.16667,-0.5 8.83333,-0.5 9.5,-0.5C 12.1218,6.11265 16.4551,11.1127 22.5,14.5C 22.2852,16.1788 22.9519,17.1788 24.5,17.5C 24.9066,16.2382 25.24,14.9049 25.5,13.5C 26.7481,14.0402 27.9148,14.7069 29,15.5C 28.9933,21.6701 31.8267,23.6701 37.5,21.5C 38.7989,22.09 39.6322,23.09 40,24.5C 42.3434,23.8732 44.5101,22.8732 46.5,21.5C 49.0956,22.4822 51.7623,23.1489 54.5,23.5C 54.6294,19.515 56.4628,18.1817 60,19.5C 61.6349,22.6319 63.4682,25.6319 65.5,28.5C 65.1667,29.1667 64.8333,29.8333 64.5,30.5C 66.6077,33.1566 67.941,36.1566 68.5,39.5C 68.5,40.8333 68.5,42.1667 68.5,43.5C 67.4336,45.7014 66.767,48.0347 66.5,50.5C 65.5,50.5 64.5,50.5 63.5,50.5C 63.7612,54.0442 62.0945,55.8775 58.5,56C 60.5071,58.8543 61.8405,62.0209 62.5,65.5C 62.2104,67.0441 61.5437,68.3774 60.5,69.5C 61.2458,70.7362 61.5792,72.0695 61.5,73.5C 59.0509,72.9426 56.7175,72.9426 54.5,73.5C 55.3928,76.0841 55.7261,78.7508 55.5,81.5C 53.5,81.5 51.5,81.5 49.5,81.5C 49.1667,80.1667 48.8333,80.1667 48.5,81.5C 47.5,81.5 46.5,81.5 45.5,81.5C 44.7803,77.372 42.6136,74.372 39,72.5C 37.4086,70.0734 36.5752,67.4067 36.5,64.5C 35.1667,63.8333 33.8333,63.1667 32.5,62.5C 34.4496,60.7783 35.7829,58.6116 36.5,56C 35.8333,55.6667 35.1667,55.3333 34.5,55C 35.77,51.7968 37.77,49.1301 40.5,47C 39.8875,44.8526 39.2208,42.686 38.5,40.5C 37.0052,41.7053 35.6719,41.7053 34.5,40.5C 33.2582,33.9925 32.5915,33.9925 32.5,40.5C 28.5242,45.7353 25.5242,45.4019 23.5,39.5C 24.3072,34.7766 22.6405,31.1099 18.5,28.5C 17.2086,27.5272 17.2086,26.5272 18.5,25.5C 18.0431,24.7025 17.3764,24.3691 16.5,24.5C 10.0269,19.4718 4.36022,13.8052 -0.5,7.5C -0.5,7.16667 -0.5,6.83333 -0.5,6.5C 0.166667,6.5 0.5,6.16667 0.5,5.5C 2.78121,5.92271 4.44787,5.25605 5.5,3.5C 6.16667,2.16667 6.83333,0.833333 7.5,-0.5 Z"/></g>
<g><path style="opacity:0.105" fill="#260b03" d="M 5.5,3.5 C 4.44787,5.25605 2.78121,5.92271 0.5,5.5C 2.02763,4.69079 3.6943,4.02412 5.5,3.5 Z"/></g>
<g><path style="opacity:0.263" fill="#661212" d="M 22.5,14.5 C 23.4013,15.2905 24.0679,16.2905 24.5,17.5C 22.9519,17.1788 22.2852,16.1788 22.5,14.5 Z"/></g>
<g><path style="opacity:0.459" fill="#59120f" d="M 16.5,24.5 C 17.3764,24.3691 18.0431,24.7025 18.5,25.5C 17.2086,26.5272 17.2086,27.5272 18.5,28.5C 16.8235,27.8166 16.1568,26.4832 16.5,24.5 Z"/></g>
<g><path style="opacity:0.267" fill="#49100c" d="M 34.5,40.5 C 33.8333,40.5 33.1667,40.5 32.5,40.5C 32.5915,33.9925 33.2582,33.9925 34.5,40.5 Z"/></g>
<g><path style="opacity:0.333" fill="#561310" d="M 68.5,39.5 C 69.1667,40.1667 69.8333,40.8333 70.5,41.5C 70.5,41.8333 70.5,42.1667 70.5,42.5C 69.8333,42.8333 69.1667,43.1667 68.5,43.5C 68.5,42.1667 68.5,40.8333 68.5,39.5 Z"/></g>
<g><path style="opacity:0.098" fill="#540e0e" d="M 32.5,62.5 C 33.8333,63.1667 35.1667,63.8333 36.5,64.5C 34.712,64.7852 33.0453,64.4519 31.5,63.5C 31.6236,62.8933 31.9569,62.56 32.5,62.5 Z"/></g>
</svg>
