<?xml version="1.0" encoding="UTF-8"?>
<!DOCTYPE svg PUBLIC "-//W3C//DTD SVG 1.1//EN" "http://www.w3.org/Graphics/SVG/1.1/DTD/svg11.dtd">
<svg xmlns="http://www.w3.org/2000/svg" version="1.1" width="56px" height="86px" style="shape-rendering:geometricPrecision; text-rendering:geometricPrecision; image-rendering:optimizeQuality; fill-rule:evenodd; clip-rule:evenodd" xmlns:xlink="http://www.w3.org/1999/xlink">
<g><path style="opacity:0.56" fill="#e21c22" d="M 35.5,-0.5 C 36.5,-0.5 37.5,-0.5 38.5,-0.5C 39.0802,3.81002 39.4135,8.14335 39.5,12.5C 43.8859,13.6888 46.8859,16.5221 48.5,21C 48.1223,22.6349 47.4556,24.1349 46.5,25.5C 41.2108,27.0773 40.2108,30.0773 43.5,34.5C 45.2141,33.3915 45.8808,34.0582 45.5,36.5C 47.3904,36.2965 48.8904,36.9632 50,38.5C 51.7039,41.1735 52.8706,44.0068 53.5,47C 52.0279,51.0836 50.3612,55.0836 48.5,59C 51.0392,60.6336 53.3725,62.467 55.5,64.5C 55.5,66.8333 55.5,69.1667 55.5,71.5C 54.4693,72.355 53.3026,73.0217 52,73.5C 48.1686,72.6215 45.8353,74.2881 45,78.5C 44.3292,77.7476 43.4959,77.4142 42.5,77.5C 42.5,76.1667 42.5,74.8333 42.5,73.5C 41.5,73.5 40.5,73.5 39.5,73.5C 35.8981,73.5062 33.8981,75.3395 33.5,79C 31.8333,79.3333 30.1667,79.6667 28.5,80C 29.4061,81.6995 29.7394,83.5328 29.5,85.5C 28.8333,85.5 28.1667,85.5 27.5,85.5C 26.3524,83.245 24.6857,81.4117 22.5,80C 21.451,79.5078 20.451,79.6744 19.5,80.5C 14.588,76.817 15.2547,73.817 21.5,71.5C 20.9943,68.329 19.3276,65.9957 16.5,64.5C 17.6405,63.5745 17.6405,62.7412 16.5,62C 17.6667,60.8333 18.8333,59.6667 20,58.5C 22.8119,61.1905 24.6453,60.5238 25.5,56.5C 23.4117,53.5471 23.0784,50.3804 24.5,47C 24.3166,45.3164 23.6499,45.1498 22.5,46.5C 21.596,45.791 21.2627,44.791 21.5,43.5C 20.1667,43.5 18.8333,43.5 17.5,43.5C 16.6618,43.1583 16.3284,42.4916 16.5,41.5C 14.8317,42.8438 13.1651,44.1771 11.5,45.5C 9.86529,44.9537 8.19863,44.6204 6.5,44.5C 7.09647,42.602 7.09647,40.9354 6.5,39.5C 4.56475,38.8505 2.56475,38.5172 0.5,38.5C 0.477244,36.4004 1.14391,34.5671 2.5,33C 1.58799,30.6828 0.587994,28.5161 -0.5,26.5C -0.5,25.8333 -0.5,25.1667 -0.5,24.5C 2.16667,21.8333 2.16667,19.1667 -0.5,16.5C -0.5,15.8333 -0.5,15.1667 -0.5,14.5C 4.51108,14.6659 9.51108,14.4993 14.5,14C 16.0722,9.73327 18.9055,8.56661 23,10.5C 28.5625,8.43854 32.7292,4.77188 35.5,-0.5 Z M 16.5,41.5 C 16.5173,39.9719 17.184,39.4719 18.5,40C 17.9558,40.7172 17.2891,41.2172 16.5,41.5 Z"/></g>
<g><path style="opacity:0.267" fill="#681212" d="M 6.5,39.5 C 7.09647,40.9354 7.09647,42.602 6.5,44.5C 5.28006,42.9504 5.28006,41.2837 6.5,39.5 Z"/></g>
<g><path style="opacity:0.475" fill="#851415" d="M 17.5,43.5 C 18.8333,43.5 20.1667,43.5 21.5,43.5C 21.2627,44.791 21.596,45.791 22.5,46.5C 22.44,47.0431 22.1067,47.3764 21.5,47.5C 20.6143,46.675 20.281,45.675 20.5,44.5C 19.209,44.7373 18.209,44.404 17.5,43.5 Z"/></g>
<g><path style="opacity:0.196" fill="#510d0d" d="M 39.5,73.5 C 40.5,73.5 41.5,73.5 42.5,73.5C 42.5,74.8333 42.5,76.1667 42.5,77.5C 41.6588,76.0736 40.6588,74.7403 39.5,73.5 Z"/></g>
</svg>
