<?xml version="1.0" encoding="UTF-8"?>
<!DOCTYPE svg PUBLIC "-//W3C//DTD SVG 1.1//EN" "http://www.w3.org/Graphics/SVG/1.1/DTD/svg11.dtd">
<svg xmlns="http://www.w3.org/2000/svg" version="1.1" width="79px" height="42px" style="shape-rendering:geometricPrecision; text-rendering:geometricPrecision; image-rendering:optimizeQuality; fill-rule:evenodd; clip-rule:evenodd" xmlns:xlink="http://www.w3.org/1999/xlink">
<g><path style="opacity:0.557" fill="#dc1b21" d="M 10.5,-0.5 C 10.8333,-0.5 11.1667,-0.5 11.5,-0.5C 13.9066,0.711662 16.24,2.21166 18.5,4C 19.1905,5.06743 19.6905,6.23409 20,7.5C 24.2978,12.034 28.7978,16.2007 33.5,20C 37.2461,22.213 40.5795,21.8796 43.5,19C 51.6774,17.1726 57.5107,20.0059 61,27.5C 64.1692,27.1368 66.8359,25.8034 69,23.5C 69.7083,24.3805 70.5416,25.0472 71.5,25.5C 72.391,24.8902 73.391,24.5569 74.5,24.5C 76.256,26.249 77.5894,28.249 78.5,30.5C 78.5,30.8333 78.5,31.1667 78.5,31.5C 77.8501,31.8039 77.1835,32.1373 76.5,32.5C 75.8333,34.5 75.1667,36.5 74.5,38.5C 68.4132,36.4144 62.4132,34.0811 56.5,31.5C 52.2005,31.6536 47.8672,32.6536 43.5,34.5C 39.9574,31.8006 36.6241,31.9673 33.5,35C 34.6034,36.6804 34.2701,38.1804 32.5,39.5C 30.0407,40.643 27.7073,40.3096 25.5,38.5C 24.5748,39.3569 23.9081,40.3569 23.5,41.5C 23.1667,41.5 22.8333,41.5 22.5,41.5C 20.2343,37.5644 17.2343,34.2311 13.5,31.5C 14.2378,29.0598 15.5712,27.0598 17.5,25.5C 17,24.5 16.5,23.5 16,22.5C 13.2617,21.5183 10.4284,20.8516 7.5,20.5C 7.5,19.5 7.5,18.5 7.5,17.5C 7.5,15.8333 7.5,14.1667 7.5,12.5C 6.5,12.5 5.5,12.5 4.5,12.5C 3.21525,10.5484 1.54859,8.88178 -0.5,7.5C -0.5,5.83333 -0.5,4.16667 -0.5,2.5C 1.91711,2.97769 4.08377,3.97769 6,5.5C 7.75241,3.64908 9.25241,1.64908 10.5,-0.5 Z"/></g>
<g><path style="opacity:0.369" fill="#7f1214" d="M 4.5,12.5 C 5.5,12.5 6.5,12.5 7.5,12.5C 7.5,14.1667 7.5,15.8333 7.5,17.5C 6.56552,16.4324 6.23219,15.099 6.5,13.5C 4.59922,13.7535 3.93256,13.4202 4.5,12.5 Z"/></g>
<g><path style="opacity:0.537" fill="#5c1411" d="M 74.5,24.5 C 73.391,24.5569 72.391,24.8902 71.5,25.5C 71.9865,22.2855 72.9865,21.9522 74.5,24.5 Z"/></g>
</svg>
