<?xml version="1.0" encoding="UTF-8"?>
<!DOCTYPE svg PUBLIC "-//W3C//DTD SVG 1.1//EN" "http://www.w3.org/Graphics/SVG/1.1/DTD/svg11.dtd">
<svg xmlns="http://www.w3.org/2000/svg" version="1.1" width="89px" height="84px" style="shape-rendering:geometricPrecision; text-rendering:geometricPrecision; image-rendering:optimizeQuality; fill-rule:evenodd; clip-rule:evenodd" xmlns:xlink="http://www.w3.org/1999/xlink">
<g><path style="opacity:0.56" fill="#e71c23" d="M 69.5,-0.5 C 69.8333,-0.5 70.1667,-0.5 70.5,-0.5C 73.3972,0.55813 75.5639,2.55813 77,5.5C 78.2391,11.5574 80.4058,17.2241 83.5,22.5C 82.7769,24.1639 83.1103,25.8306 84.5,27.5C 83.6371,28.7264 83.6371,30.0597 84.5,31.5C 83.6888,36.0063 83.6888,40.3396 84.5,44.5C 84.5,45.1667 84.5,45.8333 84.5,46.5C 84.6567,47.8734 84.49,49.2068 84,50.5C 83.586,50.0426 83.086,49.7093 82.5,49.5C 80.2784,54.0225 76.7784,57.0225 72,58.5C 70.6764,57.1198 69.3431,56.7865 68,57.5C 67.2828,56.9558 66.7828,56.2891 66.5,55.5C 64.7354,54.5386 62.7354,54.2053 60.5,54.5C 60.5,55.5 60.5,56.5 60.5,57.5C 61.1834,59.1765 62.5168,59.8432 64.5,59.5C 64.3379,61.5273 64.5045,63.5273 65,65.5C 67.8108,68.4 68.3108,71.7334 66.5,75.5C 64.6203,75.2291 63.287,75.8958 62.5,77.5C 61.6554,78.6715 60.9887,80.0048 60.5,81.5C 57.8333,81.5 55.1667,81.5 52.5,81.5C 51.5,81.5 50.5,81.5 49.5,81.5C 47.8086,74.2698 43.8086,68.7698 37.5,65C 31.3645,63.9972 25.1978,63.4972 19,63.5C 14.6912,64.5521 10.6912,66.2188 7,68.5C 7.5021,64.9078 7.5021,61.2411 7,57.5C 5.36313,54.2835 4.0298,50.9502 3,47.5C 2.18405,46.1772 1.01739,45.5106 -0.5,45.5C -0.5,42.5 -0.5,39.5 -0.5,36.5C -0.166667,36.5 0.166667,36.5 0.5,36.5C 3.07443,34.8691 5.7411,33.2025 8.5,31.5C 9.45189,29.9547 9.78522,28.288 9.5,26.5C 9.41423,25.5041 9.74756,24.6708 10.5,24C 14.217,24.0373 17.3836,22.8706 20,20.5C 24.5003,23.1002 28.0003,21.9336 30.5,17C 36.6938,16.5157 41.0272,13.5157 43.5,8C 42.3777,6.38657 42.8777,5.2199 45,4.5C 47.158,7.94993 49.658,8.28326 52.5,5.5C 53.4461,5.98672 54.4461,6.32006 55.5,6.5C 57.3254,5.34888 59.3254,4.68221 61.5,4.5C 61.5,3.5 61.5,2.5 61.5,1.5C 64.3725,1.19767 67.0392,0.531006 69.5,-0.5 Z"/></g>
<g><path style="opacity:0.616" fill="#931416" d="M 9.5,26.5 C 9.78522,28.288 9.45189,29.9547 8.5,31.5C 5.7411,33.2025 3.07443,34.8691 0.5,36.5C 2.16165,33.8185 4.49498,31.8185 7.5,30.5C 8.17189,29.0508 8.83855,27.7175 9.5,26.5 Z"/></g>
<g><path style="opacity:0.475" fill="#9f1619" d="M 84.5,31.5 C 86.0077,33.1708 86.3411,35.0041 85.5,37C 86.1634,38.5185 87.1634,39.6851 88.5,40.5C 88.5,41.5 88.5,42.5 88.5,43.5C 87.596,44.209 87.2627,45.209 87.5,46.5C 86.5,46.5 85.5,46.5 84.5,46.5C 84.5,45.8333 84.5,45.1667 84.5,44.5C 83.6888,40.3396 83.6888,36.0063 84.5,31.5 Z"/></g>
<g><path style="opacity:0.431" fill="#841215" d="M 66.5,55.5 C 64.1137,55.2587 62.1137,55.9254 60.5,57.5C 62.1137,55.9254 64.1137,55.2587 66.5,55.5 Z"/></g>
<g><path style="opacity:0.098" fill="#4d100c" d="M 62.5,77.5 C 62.8432,79.4832 62.1765,80.8166 60.5,81.5C 60.9887,80.0048 61.6554,78.6715 62.5,77.5 Z"/></g>
<g><path style="opacity:0.447" fill="#891716" d="M 52.5,81.5 C 55.1667,81.5 57.8333,81.5 60.5,81.5C 59.8333,82.1667 59.1667,82.8333 58.5,83.5C 58.1667,83.5 57.8333,83.5 57.5,83.5C 55.8333,82.8333 54.1667,82.1667 52.5,81.5 Z"/></g>
</svg>
