<?xml version="1.0" encoding="UTF-8"?>
<!DOCTYPE svg PUBLIC "-//W3C//DTD SVG 1.1//EN" "http://www.w3.org/Graphics/SVG/1.1/DTD/svg11.dtd">
<svg xmlns="http://www.w3.org/2000/svg" version="1.1" width="36px" height="42px" style="shape-rendering:geometricPrecision; text-rendering:geometricPrecision; image-rendering:optimizeQuality; fill-rule:evenodd; clip-rule:evenodd" xmlns:xlink="http://www.w3.org/1999/xlink">
<g><path style="opacity:0.557" fill="#db1c21" d="M 24.5,-0.5 C 25.5,-0.5 26.5,-0.5 27.5,-0.5C 28.8087,1.49676 30.1421,3.49676 31.5,5.5C 30.5382,8.14926 30.2048,10.6493 30.5,13C 32.0302,14.1203 33.6968,14.9536 35.5,15.5C 35.5,16.5 35.5,17.5 35.5,18.5C 33.4939,19.8394 31.8272,21.5061 30.5,23.5C 31.4303,25.1047 31.4303,26.6047 30.5,28C 31.0442,28.7172 31.7109,29.2172 32.5,29.5C 32.6747,31.6208 32.3414,33.6208 31.5,35.5C 29.9142,36.1481 28.2475,36.6481 26.5,37C 25.6215,40.1923 23.7882,41.0257 21,39.5C 18.872,35.6985 17.0387,31.6985 15.5,27.5C 14.914,27.7093 14.414,28.0426 14,28.5C 13.6905,27.2341 13.1905,26.0674 12.5,25C 12.8333,24.6667 13.1667,24.3333 13.5,24C 10.156,23.3325 7.48938,21.6658 5.5,19C 3.86586,18.5065 2.19919,18.3398 0.5,18.5C 0.286495,16.8561 0.619828,15.3561 1.5,14C 0.934056,13.0053 0.267389,12.172 -0.5,11.5C -0.5,11.1667 -0.5,10.8333 -0.5,10.5C 1.50191,8.49043 3.50191,6.49043 5.5,4.5C 7.59135,7.11535 10.0914,9.44868 13,11.5C 14.8333,10.3333 16.3333,8.83333 17.5,7C 18.4491,6.38277 19.2825,6.54943 20,7.5C 21.7653,4.96792 23.2653,2.30125 24.5,-0.5 Z"/></g>
<g><path style="opacity:0.333" fill="#7b1214" d="M 32.5,29.5 C 33.3058,30.9972 33.9724,32.6639 34.5,34.5C 33.675,35.3857 32.675,35.719 31.5,35.5C 32.3414,33.6208 32.6747,31.6208 32.5,29.5 Z"/></g>
</svg>
