<?xml version="1.0" encoding="UTF-8"?>
<!DOCTYPE svg PUBLIC "-//W3C//DTD SVG 1.1//EN" "http://www.w3.org/Graphics/SVG/1.1/DTD/svg11.dtd">
<svg xmlns="http://www.w3.org/2000/svg" version="1.1" width="68px" height="43px" style="shape-rendering:geometricPrecision; text-rendering:geometricPrecision; image-rendering:optimizeQuality; fill-rule:evenodd; clip-rule:evenodd" xmlns:xlink="http://www.w3.org/1999/xlink">
<g><path style="opacity:0.56" fill="#df1c22" d="M 30.5,-0.5 C 30.8333,-0.5 31.1667,-0.5 31.5,-0.5C 34.3295,8.64514 39.3295,16.4785 46.5,23C 47.8333,23.3333 49.1667,23.6667 50.5,24C 54.2171,27.3847 58.2171,30.3847 62.5,33C 63.6394,34.7804 64.6394,36.6137 65.5,38.5C 65.1667,39.1667 64.8333,39.8333 64.5,40.5C 62.8621,39.8411 61.1955,39.1744 59.5,38.5C 57.1601,40.6794 54.4934,42.0127 51.5,42.5C 50.8333,42.5 50.1667,42.5 49.5,42.5C 47.6115,41.678 45.6115,40.8447 43.5,40C 44.1667,39.3333 44.8333,38.6667 45.5,38C 42.9816,36.4977 40.4816,34.9977 38,33.5C 35.8003,34.522 33.8003,35.8553 32,37.5C 30.7025,36.2164 29.5358,36.3831 28.5,38C 26.8333,38.6667 25.1667,38.6667 23.5,38C 21.4545,34.994 19.4545,31.994 17.5,29C 16.0039,28.4926 14.8373,28.9926 14,30.5C 11.3301,29.7761 9.83008,28.1094 9.5,25.5C 8.44802,25.6495 7.44802,25.4828 6.5,25C 4.08049,22.4323 1.74715,19.9323 -0.5,17.5C -0.5,14.8333 -0.5,12.1667 -0.5,9.5C 2.30958,8.27399 5.14291,7.27399 8,6.5C 10.9256,8.7151 14.0923,9.04844 17.5,7.5C 20.0081,9.45641 22.6748,10.1231 25.5,9.5C 27.0481,9.17876 27.7148,8.17876 27.5,6.5C 28.2899,5.20577 29.2899,4.0391 30.5,3C 29.3157,1.85453 29.3157,0.687867 30.5,-0.5 Z"/></g>
<g><path style="opacity:0.502" fill="#55120f" d="M 27.5,6.5 C 27.7148,8.17876 27.0481,9.17876 25.5,9.5C 25.9321,8.29049 26.5987,7.29049 27.5,6.5 Z"/></g>
<g><path style="opacity:0.125" fill="#250803" d="M 65.5,38.5 C 66.7574,39.6226 66.4241,40.2893 64.5,40.5C 64.8333,39.8333 65.1667,39.1667 65.5,38.5 Z"/></g>
</svg>
