<?xml version="1.0" encoding="UTF-8"?>
<!DOCTYPE svg PUBLIC "-//W3C//DTD SVG 1.1//EN" "http://www.w3.org/Graphics/SVG/1.1/DTD/svg11.dtd">
<svg xmlns="http://www.w3.org/2000/svg" version="1.1" width="48px" height="32px" style="shape-rendering:geometricPrecision; text-rendering:geometricPrecision; image-rendering:optimizeQuality; fill-rule:evenodd; clip-rule:evenodd" xmlns:xlink="http://www.w3.org/1999/xlink">
<g><path style="opacity:0.558" fill="#dd1c21" d="M 13.5,-0.5 C 15.1667,-0.5 16.8333,-0.5 18.5,-0.5C 18.2296,2.31257 17.7296,4.97924 17,7.5C 18.4579,8.74684 19.9579,8.74684 21.5,7.5C 24.2988,9.21369 27.2988,10.547 30.5,11.5C 31.0715,14.9775 31.0715,18.3108 30.5,21.5C 31.9501,22.8498 32.6168,24.5165 32.5,26.5C 28.5133,28.5756 24.1799,29.9089 19.5,30.5C 18.1667,30.1667 16.8333,29.8333 15.5,29.5C 13.6167,24.8726 10.7834,24.2059 7,27.5C 5.35509,25.6118 3.52176,23.9451 1.5,22.5C 1.16667,21.3333 0.833333,20.1667 0.5,19C 1.14994,16.7242 1.14994,14.5575 0.5,12.5C 2.65454,11.0722 4.82121,10.7389 7,11.5C 8.25249,8.98646 8.75249,6.3198 8.5,3.5C 9.70951,3.06795 10.7095,2.40128 11.5,1.5C 12.5,1.16667 13.1667,0.5 13.5,-0.5 Z"/></g>
<g><path style="opacity:0.145" fill="#340d06" d="M 11.5,1.5 C 10.7095,2.40128 9.70951,3.06795 8.5,3.5C 8.82124,1.95186 9.82124,1.28519 11.5,1.5 Z"/></g>
<g><path style="opacity:0.561" fill="#b81a1d" d="M 47.5,21.5 C 47.5,21.8333 47.5,22.1667 47.5,22.5C 45.0582,22.1192 44.3915,22.7859 45.5,24.5C 41.8824,25.433 39.5491,23.933 38.5,20C 38.8621,18.1147 40.0287,17.2814 42,17.5C 44.2869,18.2977 46.1202,19.631 47.5,21.5 Z"/></g>
<g><path style="opacity:0.404" fill="#9b1316" d="M 34.5,19.5 C 36.9828,19.73 37.4828,20.3966 36,21.5C 34.9701,21.1639 34.4701,20.4972 34.5,19.5 Z"/></g>
<g><path style="opacity:0.196" fill="#5e0d10" d="M 15.5,29.5 C 16.8333,29.8333 18.1667,30.1667 19.5,30.5C 19.5,30.8333 19.5,31.1667 19.5,31.5C 18.5,31.5 17.5,31.5 16.5,31.5C 16.1667,30.8333 15.8333,30.1667 15.5,29.5 Z"/></g>
</svg>
