<?xml version="1.0" encoding="UTF-8"?>
<!DOCTYPE svg PUBLIC "-//W3C//DTD SVG 1.1//EN" "http://www.w3.org/Graphics/SVG/1.1/DTD/svg11.dtd">
<svg xmlns="http://www.w3.org/2000/svg" version="1.1" width="60px" height="58px" style="shape-rendering:geometricPrecision; text-rendering:geometricPrecision; image-rendering:optimizeQuality; fill-rule:evenodd; clip-rule:evenodd" xmlns:xlink="http://www.w3.org/1999/xlink">
<g><path style="opacity:0.559" fill="#dc1b21" d="M 4.5,-0.5 C 5.83333,-0.5 7.16667,-0.5 8.5,-0.5C 11.1152,0.433922 11.7818,2.10059 10.5,4.5C 12.1083,5.31844 13.7749,5.9851 15.5,6.5C 18.1946,4.66625 20.1946,2.33292 21.5,-0.5C 21.8333,-0.5 22.1667,-0.5 22.5,-0.5C 23.7569,1.36804 23.4236,3.03471 21.5,4.5C 23.3325,5.24848 24.9991,6.24848 26.5,7.5C 28.1667,5.83333 29.1667,6.16667 29.5,8.5C 29.1667,9.83333 28.8333,11.1667 28.5,12.5C 32.3224,19.1915 30.6558,22.6915 23.5,23C 22.9415,23.7247 22.6082,24.5581 22.5,25.5C 23.4295,27.6061 24.5962,29.6061 26,31.5C 26.49,32.7932 26.6567,34.1266 26.5,35.5C 20.2888,35.8102 19.4555,37.8102 24,41.5C 24.414,41.0426 24.914,40.7093 25.5,40.5C 27.0009,41.7515 28.6675,42.7515 30.5,43.5C 31.7708,41.1713 33.7708,40.0047 36.5,40C 37.5,38.3333 38.5,36.6667 39.5,35C 41.8473,34.6664 44.1806,34.833 46.5,35.5C 46.3118,37.1033 46.8118,38.4366 48,39.5C 48.8647,35.3261 51.3647,33.4928 55.5,34C 56.9328,36.1731 58.2661,38.3398 59.5,40.5C 59.5,42.1667 59.5,43.8333 59.5,45.5C 56.3087,48.8018 52.3087,50.6351 47.5,51C 46.3333,52.1667 45.1667,53.3333 44,54.5C 42.6439,53.6198 41.1439,53.2865 39.5,53.5C 39.0934,52.2382 38.76,50.9049 38.5,49.5C 37.4777,49.8555 36.811,50.5222 36.5,51.5C 34.6854,50.3702 32.6854,49.7036 30.5,49.5C 30.762,50.9778 30.4287,52.3112 29.5,53.5C 27.5029,54.7474 25.5029,55.5808 23.5,56C 22.0836,53.1651 20.417,50.4985 18.5,48C 19.5897,45.721 19.2563,43.5543 17.5,41.5C 15.1472,42.565 12.8139,42.3983 10.5,41C 9.69587,39.2287 8.52921,37.7287 7,36.5C 7.7334,34.1089 8.56673,31.6089 9.5,29C 7.14011,27.8201 4.80678,26.6534 2.5,25.5C 2.5,24.8333 2.5,24.1667 2.5,23.5C 3.53254,22.0883 4.19921,20.4216 4.5,18.5C 3.06147,15.2818 1.39481,12.2818 -0.5,9.5C -0.5,8.5 -0.5,7.5 -0.5,6.5C 0.630982,3.74474 2.29765,1.41141 4.5,-0.5 Z"/></g>
<g><path style="opacity:0.545" fill="#4e1410" d="M 2.5,23.5 C 2.5,24.1667 2.5,24.8333 2.5,25.5C 1.92217,26.547 1.2555,26.3803 0.5,25C 1.0442,24.2828 1.71087,23.7828 2.5,23.5 Z"/></g>
<g><path style="opacity:0.571" fill="#921617" d="M 39.5,53.5 C 38.5207,56.1567 36.854,56.8234 34.5,55.5C 35.3128,54.1861 36.3128,53.0195 37.5,52C 37.2716,51.6012 36.9382,51.4346 36.5,51.5C 36.811,50.5222 37.4777,49.8555 38.5,49.5C 38.76,50.9049 39.0934,52.2382 39.5,53.5 Z"/></g>
</svg>
