<?xml version="1.0" encoding="UTF-8"?>
<!DOCTYPE svg PUBLIC "-//W3C//DTD SVG 1.1//EN" "http://www.w3.org/Graphics/SVG/1.1/DTD/svg11.dtd">
<svg xmlns="http://www.w3.org/2000/svg" version="1.1" width="60px" height="55px" style="shape-rendering:geometricPrecision; text-rendering:geometricPrecision; image-rendering:optimizeQuality; fill-rule:evenodd; clip-rule:evenodd" xmlns:xlink="http://www.w3.org/1999/xlink">
<g><path style="opacity:0.306" fill="#8d1115" d="M 5.5,0.5 C 5.5,0.166667 5.5,-0.166667 5.5,-0.5C 6.83333,-0.5 8.16667,-0.5 9.5,-0.5C 9.5,0.833333 8.83333,1.5 7.5,1.5C 7.15829,0.661754 6.49162,0.32842 5.5,0.5 Z"/></g>
<g><path style="opacity:0.341" fill="#8e1917" d="M 5.5,0.5 C 6.49162,0.32842 7.15829,0.661754 7.5,1.5C 6.29177,2.78202 4.95844,2.78202 3.5,1.5C 3.95689,0.702451 4.62356,0.369118 5.5,0.5 Z"/></g>
<g><path style="opacity:0.502" fill="#611210" d="M 41.5,4.5 C 45.4846,5.51382 45.4846,6.51382 41.5,7.5C 40.8333,7.16667 40.1667,6.83333 39.5,6.5C 40.2427,5.81815 40.9094,5.15149 41.5,4.5 Z"/></g>
<g><path style="opacity:0.475" fill="#751514" d="M -0.5,19.5 C -0.5,19.1667 -0.5,18.8333 -0.5,18.5C 0.575371,17.4376 1.57537,17.4376 2.5,18.5C 1.67504,19.3857 0.675044,19.719 -0.5,19.5 Z"/></g>
<g><path style="opacity:0.271" fill="#641211" d="M 18.5,28.5 C 16.2398,27.7624 16.0731,26.7624 18,25.5C 18.4828,26.448 18.6495,27.448 18.5,28.5 Z"/></g>
<g><path style="opacity:0.529" fill="#721012" d="M 18.5,28.5 C 19.3764,28.3691 20.0431,28.7025 20.5,29.5C 18.9929,33.3548 18.3262,33.0214 18.5,28.5 Z"/></g>
<g><path style="opacity:0.318" fill="#6b0e14" d="M 10.5,30.5 C 12.337,30.6395 12.6704,31.3061 11.5,32.5C 10.7025,32.0431 10.3691,31.3764 10.5,30.5 Z"/></g>
<g><path style="opacity:0.51" fill="#9a1818" d="M 27.5,36.5 C 29.8568,36.3367 32.1902,36.5034 34.5,37C 31.7346,39.0407 29.4013,38.8741 27.5,36.5 Z"/></g>
<g><path style="opacity:0.035" fill="#d0191d" d="M 19.5,39.5 C 21.0481,39.8212 21.7148,40.8212 21.5,42.5C 19.9519,42.1788 19.2852,41.1788 19.5,39.5 Z"/></g>
<g><path style="opacity:0.333" fill="#801315" d="M 19.5,39.5 C 19.2852,41.1788 19.9519,42.1788 21.5,42.5C 21.2648,43.0967 20.7648,43.4301 20,43.5C 18.0786,41.9972 15.912,41.3305 13.5,41.5C 12.8333,41.5 12.1667,41.5 11.5,41.5C 13.78,39.7773 16.4467,39.1107 19.5,39.5 Z"/></g>
<g><path style="opacity:0.51" fill="#8e1115" d="M 10.5,42.5 C 10.5,41.8333 10.8333,41.5 11.5,41.5C 12.1667,41.5 12.8333,41.5 13.5,41.5C 13.5,41.8333 13.5,42.1667 13.5,42.5C 12.596,43.209 12.2627,44.209 12.5,45.5C 12.1667,45.5 11.8333,45.5 11.5,45.5C 11.7373,44.209 11.404,43.209 10.5,42.5 Z"/></g>
<g><path style="opacity:0.58" fill="#b4151a" d="M 10.5,42.5 C 11.404,43.209 11.7373,44.209 11.5,45.5C 9.44818,44.9473 9.11484,43.9473 10.5,42.5 Z"/></g>
<g><path style="opacity:0.204" fill="#b9161a" d="M 13.5,42.5 C 15.5499,43.3218 15.2165,44.3218 12.5,45.5C 12.2627,44.209 12.596,43.209 13.5,42.5 Z"/></g>
<g><path style="opacity:0.553" fill="#981718" d="M 19.5,49.5 C 23.0597,50.3109 23.2263,51.3109 20,52.5C 18.3167,51.8235 18.1501,50.8235 19.5,49.5 Z"/></g>
<g><path style="opacity:0.329" fill="#770e12" d="M 56.5,50.5 C 56.5,50.8333 56.5,51.1667 56.5,51.5C 55.3478,52.625 54.3478,52.625 53.5,51.5C 54.209,50.596 55.209,50.2627 56.5,50.5 Z"/></g>
<g><path style="opacity:0.431" fill="#981617" d="M 56.5,52.5 C 56.5,52.1667 56.5,51.8333 56.5,51.5C 56.5,51.1667 56.5,50.8333 56.5,50.5C 57.6499,49.1498 58.3166,49.3164 58.5,51C 58.1639,52.0299 57.4972,52.5299 56.5,52.5 Z"/></g>
<g><path style="opacity:0.196" fill="#2f0c06" d="M 53.5,51.5 C 54.3478,52.625 55.3478,52.625 56.5,51.5C 56.5,51.8333 56.5,52.1667 56.5,52.5C 55.5,53.1667 54.5,53.8333 53.5,54.5C 53.1667,54.5 52.8333,54.5 52.5,54.5C 50.871,52.8041 51.2043,51.8041 53.5,51.5 Z"/></g>
</svg>
