<?xml version="1.0" encoding="UTF-8"?>
<!DOCTYPE svg PUBLIC "-//W3C//DTD SVG 1.1//EN" "http://www.w3.org/Graphics/SVG/1.1/DTD/svg11.dtd">
<svg xmlns="http://www.w3.org/2000/svg" version="1.1" width="59px" height="37px" style="shape-rendering:geometricPrecision; text-rendering:geometricPrecision; image-rendering:optimizeQuality; fill-rule:evenodd; clip-rule:evenodd" xmlns:xlink="http://www.w3.org/1999/xlink">
<g><path style="opacity:0.559" fill="#df1c22" d="M 18.5,-0.5 C 19.1667,-0.5 19.8333,-0.5 20.5,-0.5C 29.5995,6.08603 38.5995,12.9194 47.5,20C 48.7441,20.4561 49.5774,19.9561 50,18.5C 50.8466,20.1932 51.6799,21.8599 52.5,23.5C 50.6214,23.3932 50.2881,23.8932 51.5,25C 52.7932,25.49 54.1266,25.6567 55.5,25.5C 56.5,25.5 57.5,25.5 58.5,25.5C 58.5,25.8333 58.5,26.1667 58.5,26.5C 53.6859,27.5062 49.0192,27.5062 44.5,26.5C 42.9309,27.714 42.0976,29.3807 42,31.5C 39.4383,32.7274 37.2716,34.3941 35.5,36.5C 34.5,36.5 33.5,36.5 32.5,36.5C 31.5313,35.6906 30.6979,34.6906 30,33.5C 26.5558,36.4704 23.5558,36.1371 21,32.5C 19.6124,33.5536 18.1124,33.7203 16.5,33C 14.0572,30.5216 11.2238,28.6883 8,27.5C 7.92707,22.5405 5.42707,20.5405 0.5,21.5C 1.04571,17.7416 3.04571,15.075 6.5,13.5C 4.01975,12.5846 3.35308,11.0846 4.5,9C 8.06007,7.76326 11.7267,7.26326 15.5,7.5C 15.5393,4.4649 16.5393,1.79823 18.5,-0.5 Z"/></g>
<g><path style="opacity:0.192" fill="#320c06" d="M 52.5,23.5 C 53.7095,23.9321 54.7095,24.5987 55.5,25.5C 54.1266,25.6567 52.7932,25.49 51.5,25C 50.2881,23.8932 50.6214,23.3932 52.5,23.5 Z"/></g>
</svg>
