<?xml version="1.0" encoding="UTF-8"?>
<!DOCTYPE svg PUBLIC "-//W3C//DTD SVG 1.1//EN" "http://www.w3.org/Graphics/SVG/1.1/DTD/svg11.dtd">
<svg xmlns="http://www.w3.org/2000/svg" version="1.1" width="36px" height="37px" style="shape-rendering:geometricPrecision; text-rendering:geometricPrecision; image-rendering:optimizeQuality; fill-rule:evenodd; clip-rule:evenodd" xmlns:xlink="http://www.w3.org/1999/xlink">
<g><path style="opacity:0.558" fill="#d81b21" d="M 3.5,-0.5 C 5.83333,-0.5 8.16667,-0.5 10.5,-0.5C 11.8284,0.507165 12.8284,1.8405 13.5,3.5C 12.4557,5.76761 12.289,8.10094 13,10.5C 15.3333,11.5 17,13.1667 18,15.5C 19,14.8333 20,14.1667 21,13.5C 22.3204,13.799 23.8204,13.9657 25.5,14C 25.1667,14.3333 24.8333,14.6667 24.5,15C 26.1123,16.3948 27.6123,17.8948 29,19.5C 31.0466,18.3906 33.2133,17.7239 35.5,17.5C 35.5,18.5 35.5,19.5 35.5,20.5C 33.2549,22.4171 32.9215,24.7504 34.5,27.5C 33.8314,30.5299 33.1647,33.5299 32.5,36.5C 32.1667,36.5 31.8333,36.5 31.5,36.5C 31.2172,35.7109 30.7172,35.0442 30,34.5C 28.9505,35.5171 27.7839,35.6838 26.5,35C 24.6951,34.028 23.0284,32.8613 21.5,31.5C 20.5,32.1667 19.5,32.8333 18.5,33.5C 16.0711,29.1084 13.5711,24.775 11,20.5C 9.64387,19.6198 8.14387,19.2865 6.5,19.5C 6.5,18.1667 6.5,16.8333 6.5,15.5C 5.5,15.5 4.5,15.5 3.5,15.5C 3.33374,12.8316 2.33374,10.4983 0.5,8.5C 1.77682,7.07831 1.44349,6.07831 -0.5,5.5C -0.5,5.16667 -0.5,4.83333 -0.5,4.5C 0.403972,3.79105 0.737305,2.79105 0.5,1.5C 2.17876,1.71481 3.17876,1.04814 3.5,-0.5 Z"/></g>
</svg>
