<?xml version="1.0" encoding="UTF-8"?>
<!DOCTYPE svg PUBLIC "-//W3C//DTD SVG 1.1//EN" "http://www.w3.org/Graphics/SVG/1.1/DTD/svg11.dtd">
<svg xmlns="http://www.w3.org/2000/svg" version="1.1" width="44px" height="76px" style="shape-rendering:geometricPrecision; text-rendering:geometricPrecision; image-rendering:optimizeQuality; fill-rule:evenodd; clip-rule:evenodd" xmlns:xlink="http://www.w3.org/1999/xlink">
<g><path style="opacity:0.559" fill="#e21c22" d="M 35.5,1.5 C 37.1788,1.28519 38.1788,1.95186 38.5,3.5C 35.6719,6.162 33.0053,8.99534 30.5,12C 32.7641,15.4798 35.0974,18.9798 37.5,22.5C 37.0814,23.6721 36.4147,24.6721 35.5,25.5C 34.1482,24.4756 32.8149,23.4756 31.5,22.5C 31.2965,24.3904 31.9632,25.8904 33.5,27C 31.0185,28.8038 31.0185,30.3038 33.5,31.5C 37.5,31.8333 37.5,32.1667 33.5,32.5C 32.7611,32.369 32.0944,32.5357 31.5,33C 32.1383,34.7067 32.1383,36.54 31.5,38.5C 30.7611,38.369 30.0944,38.5357 29.5,39C 30.4231,41.0408 30.7564,43.2075 30.5,45.5C 28.1939,46.375 27.5272,47.7084 28.5,49.5C 29.209,50.404 30.209,50.7373 31.5,50.5C 31.838,55.2223 30.338,59.5557 27,63.5C 25.8173,62.269 24.6507,62.269 23.5,63.5C 22.7463,66.777 22.2463,70.1103 22,73.5C 21.0053,74.0659 20.172,74.7326 19.5,75.5C 18.5,75.5 17.5,75.5 16.5,75.5C 13.3711,73.3675 10.8711,70.7008 9,67.5C 7.4212,68.7996 6.25453,68.4663 5.5,66.5C 5.71481,64.8212 5.04814,63.8212 3.5,63.5C 1.80072,63.4729 0.46739,62.8062 -0.5,61.5C -0.5,60.8333 -0.5,60.1667 -0.5,59.5C 1.89598,58.6995 4.22931,57.6995 6.5,56.5C 5.87715,54.2895 4.87715,52.2895 3.5,50.5C 5.68539,44.1257 7.01872,37.7924 7.5,31.5C 7.55195,29.0971 7.21862,26.7638 6.5,24.5C 5.18537,22.8653 5.18537,21.1986 6.5,19.5C 9.10582,17.7254 11.7725,17.0587 14.5,17.5C 14.1947,14.39 14.8614,11.39 16.5,8.5C 17.8734,8.65668 19.2068,8.49001 20.5,8C 24.9614,3.90416 29.9614,1.73749 35.5,1.5 Z M 31.5,22.5 C 29.9719,22.4827 29.4719,21.816 30,20.5C 30.7172,21.0442 31.2172,21.7109 31.5,22.5 Z"/></g>
<g><path style="opacity:0.537" fill="#981618" d="M 37.5,-0.5 C 38.1667,-0.5 38.8333,-0.5 39.5,-0.5C 39.7721,1.31381 39.9387,3.31381 40,5.5C 40.66,7.32366 41.8267,8.65699 43.5,9.5C 43.5,9.83333 43.5,10.1667 43.5,10.5C 42.6963,12.1887 41.6963,13.8554 40.5,15.5C 38.4835,14.8257 36.8168,13.6591 35.5,12C 37.3839,11.7837 39.0506,11.117 40.5,10C 38.75,8.24583 38.0833,6.07917 38.5,3.5C 38.1788,1.95186 37.1788,1.28519 35.5,1.5C 36.1667,0.833333 36.8333,0.166667 37.5,-0.5 Z"/></g>
<g><path style="opacity:0.196" fill="#5f0f10" d="M 6.5,24.5 C 7.21862,26.7638 7.55195,29.0971 7.5,31.5C 6.62041,29.8632 5.95374,28.0299 5.5,26C 5.56993,25.2352 5.90326,24.7352 6.5,24.5 Z"/></g>
<g><path style="opacity:0.404" fill="#851314" d="M 33.5,31.5 C 34.5676,30.5655 35.901,30.2322 37.5,30.5C 37.5,31.5 37.5,32.5 37.5,33.5C 35.901,33.7678 34.5676,33.4345 33.5,32.5C 37.5,32.1667 37.5,31.8333 33.5,31.5 Z"/></g>
<g><path style="opacity:0.412" fill="#4d0d0c" d="M 31.5,38.5 C 31.8333,39.1667 32.1667,39.8333 32.5,40.5C 31.8333,42.5 31.1667,44.5 30.5,46.5C 30.5,46.1667 30.5,45.8333 30.5,45.5C 30.7564,43.2075 30.4231,41.0408 29.5,39C 30.0944,38.5357 30.7611,38.369 31.5,38.5 Z"/></g>
<g><path style="opacity:0.553" fill="#b31a1c" d="M 32.5,40.5 C 33.2899,41.7942 34.2899,42.9609 35.5,44C 34.1667,45.3333 34.1667,46.6667 35.5,48C 34.9747,48.6924 34.3081,49.1924 33.5,49.5C 31.1143,48.0116 30.4476,48.3449 31.5,50.5C 30.209,50.7373 29.209,50.404 28.5,49.5C 29.1667,48.5 29.8333,47.5 30.5,46.5C 31.1667,44.5 31.8333,42.5 32.5,40.5 Z"/></g>
<g><path style="opacity:0.608" fill="#581511" d="M 3.5,63.5 C 5.04814,63.8212 5.71481,64.8212 5.5,66.5C 4.59872,65.7095 3.93205,64.7095 3.5,63.5 Z"/></g>
</svg>
