<?xml version="1.0" encoding="UTF-8"?>
<!DOCTYPE svg PUBLIC "-//W3C//DTD SVG 1.1//EN" "http://www.w3.org/Graphics/SVG/1.1/DTD/svg11.dtd">
<svg xmlns="http://www.w3.org/2000/svg" version="1.1" width="80px" height="57px" style="shape-rendering:geometricPrecision; text-rendering:geometricPrecision; image-rendering:optimizeQuality; fill-rule:evenodd; clip-rule:evenodd" xmlns:xlink="http://www.w3.org/1999/xlink">
<g><path style="opacity:0.559" fill="#e11c22" d="M 47.5,-0.5 C 47.8333,-0.5 48.1667,-0.5 48.5,-0.5C 49.8484,0.60064 51.3484,1.60064 53,2.5C 53.3834,7.21402 55.7167,10.5474 60,12.5C 60.3052,14.5568 60.3052,16.5568 60,18.5C 63,19.5 66,20.5 69,21.5C 70.6459,26.1092 73.3126,30.1092 77,33.5C 77.0984,36.5224 77.9318,39.1891 79.5,41.5C 79.5,42.1667 79.5,42.8333 79.5,43.5C 77.9855,44.6801 76.3188,45.6801 74.5,46.5C 75.4803,47.9814 76.647,49.3147 78,50.5C 78.7401,51.7494 78.5735,52.7494 77.5,53.5C 75.9519,53.8212 75.2852,54.8212 75.5,56.5C 74.5,56.5 73.5,56.5 72.5,56.5C 70.3834,53.4554 67.7168,50.9554 64.5,49C 65.0219,48.4387 65.3552,47.772 65.5,47C 63.7475,40.6728 60.0809,39.0062 54.5,42C 53.0641,38.8998 51.2308,36.0665 49,33.5C 46.6971,34.7507 45.3638,36.7507 45,39.5C 40.2831,36.2875 35.7831,36.2875 31.5,39.5C 30.1861,38.6872 29.0195,37.6872 28,36.5C 21.5954,38.5447 18.7621,36.2114 19.5,29.5C 18.7387,28.6091 17.7387,27.9424 16.5,27.5C 15.7087,28.0656 15.7087,28.899 16.5,30C 16.1639,31.0299 15.4972,31.5299 14.5,31.5C 10.2916,28.805 6.45823,25.4716 3,21.5C 2.99422,18.7356 1.82755,16.7356 -0.5,15.5C -0.5,14.5 -0.5,13.5 -0.5,12.5C 1.82509,11.3454 2.99176,9.34538 3,6.5C 4.40527,4.34911 6.2386,2.68245 8.5,1.5C 9.41539,3.98025 10.9154,4.64692 13,3.5C 17.1403,5.62153 21.307,7.7882 25.5,10C 26.218,11.9874 27.218,13.8208 28.5,15.5C 30.5668,16.1341 32.4002,17.1341 34,18.5C 35.1882,17.4366 35.6882,16.1033 35.5,14.5C 38.766,14.5674 40.266,12.9008 40,9.5C 41.6667,8.5 43.3333,7.5 45,6.5C 45.3793,3.96987 46.2126,1.63653 47.5,-0.5 Z"/></g>
<g><path style="opacity:0.51" fill="#7e1315" d="M 19.5,29.5 C 17.9519,29.8212 17.2852,30.8212 17.5,32.5C 16.209,32.7373 15.209,32.404 14.5,31.5C 15.4972,31.5299 16.1639,31.0299 16.5,30C 15.7087,28.899 15.7087,28.0656 16.5,27.5C 17.7387,27.9424 18.7387,28.6091 19.5,29.5 Z"/></g>
<g><path style="opacity:0.369" fill="#521310" d="M 77.5,53.5 C 76.8902,54.391 76.5569,55.391 76.5,56.5C 76.1667,56.5 75.8333,56.5 75.5,56.5C 75.2852,54.8212 75.9519,53.8212 77.5,53.5 Z"/></g>
</svg>
