<?xml version="1.0" encoding="UTF-8"?>
<!DOCTYPE svg PUBLIC "-//W3C//DTD SVG 1.1//EN" "http://www.w3.org/Graphics/SVG/1.1/DTD/svg11.dtd">
<svg xmlns="http://www.w3.org/2000/svg" version="1.1" width="80px" height="109px" style="shape-rendering:geometricPrecision; text-rendering:geometricPrecision; image-rendering:optimizeQuality; fill-rule:evenodd; clip-rule:evenodd" xmlns:xlink="http://www.w3.org/1999/xlink">
<g><path style="opacity:0.56" fill="#e61c23" d="M 16.5,-0.5 C 18.1667,-0.5 19.8333,-0.5 21.5,-0.5C 24.1667,0.833333 26.8333,0.833333 29.5,-0.5C 30.1667,-0.5 30.8333,-0.5 31.5,-0.5C 32.8367,2.68569 33.8367,6.01902 34.5,9.5C 34.3918,10.4419 34.0585,11.2753 33.5,12C 34.9423,12.3768 35.9423,13.2101 36.5,14.5C 36.5,15.5 36.5,16.5 36.5,17.5C 34.0754,19.1697 33.9087,21.1697 36,23.5C 39.3188,23.6269 41.8188,25.4603 43.5,29C 44.448,29.4828 45.448,29.6495 46.5,29.5C 46.9169,30.1239 47.5836,30.4573 48.5,30.5C 49.7133,30.2528 50.38,29.5862 50.5,28.5C 53.2976,27.0468 56.2976,26.0468 59.5,25.5C 60.791,25.7373 61.791,25.404 62.5,24.5C 65.2492,24.7261 67.9159,24.3928 70.5,23.5C 71.4185,25.7576 72.0852,28.0909 72.5,30.5C 72.0814,31.6721 71.4147,32.6721 70.5,33.5C 70.9867,34.4461 71.3201,35.4461 71.5,36.5C 68.4324,42.3806 68.4324,48.0472 71.5,53.5C 69.4544,55.1962 67.1211,56.5295 64.5,57.5C 67.4728,59.3054 69.9728,61.6388 72,64.5C 72.772,64.3552 73.4387,64.0219 74,63.5C 74.3177,66.9052 76.151,68.9052 79.5,69.5C 79.5,70.1667 79.5,70.8333 79.5,71.5C 78.8333,71.5 78.1667,71.5 77.5,71.5C 75.8212,71.2852 74.8212,71.9519 74.5,73.5C 73.6993,75.0418 73.366,76.7085 73.5,78.5C 70.0217,78.1842 66.6883,78.6842 63.5,80C 62.1068,81.1711 61.2735,82.6711 61,84.5C 59.4452,86.1458 57.7785,86.4791 56,85.5C 54.8292,87.5895 53.4959,89.5895 52,91.5C 51,90.8333 50,90.1667 49,89.5C 47.9887,90.3366 46.8221,90.67 45.5,90.5C 43.5168,90.1568 42.1834,90.8235 41.5,92.5C 40.2997,95.9677 38.7997,99.301 37,102.5C 34.5991,101.398 32.0991,101.231 29.5,102C 26.8522,104.163 23.8522,105.663 20.5,106.5C 19.0413,106.567 17.7079,106.234 16.5,105.5C 15.7019,103.114 14.7019,100.78 13.5,98.5C 16.0307,96.406 16.8641,93.7393 16,90.5C 14.1598,88.1603 11.9931,86.1603 9.5,84.5C 11.9589,79.6375 13.4589,74.6375 14,69.5C 13.0197,68.0186 11.853,66.6853 10.5,65.5C 10.7093,64.914 11.0426,64.414 11.5,64C 10.1416,63.0656 8.80826,62.2323 7.5,61.5C 7.59121,59.3023 6.92454,58.9689 5.5,60.5C 4.83333,60.5 4.5,60.1667 4.5,59.5C 4.00745,57.1944 3.67412,54.861 3.5,52.5C 11.0193,48.7151 11.3527,44.2151 4.5,39C 3.20677,38.51 1.87344,38.3433 0.5,38.5C 0.810002,35.2869 0.476669,32.2869 -0.5,29.5C -0.5,27.5 -0.5,25.5 -0.5,23.5C 3.38742,21.6905 6.72075,22.3571 9.5,25.5C 11.4219,24.289 13.2552,22.9557 15,21.5C 15.3034,19.1116 16.1367,16.9449 17.5,15C 16.7807,9.91904 16.4474,4.75238 16.5,-0.5 Z"/></g>
<g><path style="opacity:0.643" fill="#641211" d="M 36.5,14.5 C 39.1667,15.5 39.1667,16.5 36.5,17.5C 36.5,16.5 36.5,15.5 36.5,14.5 Z"/></g>
<g><path style="opacity:0.58" fill="#661312" d="M 62.5,24.5 C 61.791,25.404 60.791,25.7373 59.5,25.5C 60.1054,23.5188 61.1054,23.1854 62.5,24.5 Z"/></g>
<g><path style="opacity:0.573" fill="#5f1111" d="M 50.5,28.5 C 50.38,29.5862 49.7133,30.2528 48.5,30.5C 47.5836,30.4573 46.9169,30.1239 46.5,29.5C 47.9587,29.5674 49.2921,29.2341 50.5,28.5 Z"/></g>
<g><path style="opacity:0.369" fill="#651211" d="M 3.5,52.5 C 3.67412,54.861 4.00745,57.1944 4.5,59.5C 2.46597,57.3452 2.13264,55.0118 3.5,52.5 Z"/></g>
<g><path style="opacity:0.063" fill="#150202" d="M 7.5,61.5 C 6.50838,61.6716 5.84171,61.3382 5.5,60.5C 6.92454,58.9689 7.59121,59.3023 7.5,61.5 Z"/></g>
<g><path style="opacity:0.267" fill="#51130f" d="M 77.5,71.5 C 76.7095,72.4013 75.7095,73.0679 74.5,73.5C 74.8212,71.9519 75.8212,71.2852 77.5,71.5 Z"/></g>
<g><path style="opacity:0.063" fill="#320e09" d="M 45.5,90.5 C 44.3285,91.3446 42.9952,92.0113 41.5,92.5C 42.1834,90.8235 43.5168,90.1568 45.5,90.5 Z"/></g>
<g><path style="opacity:0.337" fill="#571411" d="M 16.5,105.5 C 17.7079,106.234 19.0413,106.567 20.5,106.5C 19.8333,107.167 19.1667,107.833 18.5,108.5C 17.8333,108.5 17.1667,108.5 16.5,108.5C 16.5,107.5 16.5,106.5 16.5,105.5 Z"/></g>
</svg>
