<?xml version="1.0" encoding="UTF-8"?>
<!DOCTYPE svg PUBLIC "-//W3C//DTD SVG 1.1//EN" "http://www.w3.org/Graphics/SVG/1.1/DTD/svg11.dtd">
<svg xmlns="http://www.w3.org/2000/svg" version="1.1" width="61px" height="57px" style="shape-rendering:geometricPrecision; text-rendering:geometricPrecision; image-rendering:optimizeQuality; fill-rule:evenodd; clip-rule:evenodd" xmlns:xlink="http://www.w3.org/1999/xlink">
<g><path style="opacity:0.56" fill="#e11c22" d="M 5.5,-0.5 C 6.16667,-0.5 6.83333,-0.5 7.5,-0.5C 9.46283,0.959912 11.2962,2.62658 13,4.5C 14.2504,3.42666 15.5838,3.42666 17,4.5C 18.7411,2.54567 20.9078,1.54567 23.5,1.5C 23.67,2.82207 23.3366,3.98873 22.5,5C 24.1341,5.49351 25.8008,5.66018 27.5,5.5C 27.472,7.58236 28.1387,9.4157 29.5,11C 29.0825,14.8511 28.9158,19.0178 29,23.5C 29.3879,22.572 30.0546,21.9054 31,21.5C 34.5416,21.6113 37.8749,22.9446 41,25.5C 42.6895,24.8505 44.5229,24.8505 46.5,25.5C 46.6168,27.4835 45.9501,29.1502 44.5,30.5C 47.5654,32.8886 50.8987,34.8886 54.5,36.5C 57.2768,34.9811 59.2768,35.6477 60.5,38.5C 60.5,39.8333 60.5,41.1667 60.5,42.5C 58.4166,43.0289 56.5833,44.0289 55,45.5C 55.1276,48.4856 55.1276,51.4856 55,54.5C 54.586,54.0426 54.086,53.7093 53.5,53.5C 51.2241,54.2132 48.8907,54.7132 46.5,55C 45.944,55.3826 45.6107,55.8826 45.5,56.5C 44.8333,56.5 44.1667,56.5 43.5,56.5C 42.8466,55.1932 42.1799,53.8599 41.5,52.5C 37.9655,50.9677 35.9655,48.3011 35.5,44.5C 32.3588,46.2862 29.6921,45.7862 27.5,43C 22.8117,41.6753 20.3117,43.5086 20,48.5C 17.9061,50.5269 15.5728,52.1935 13,53.5C 10.5157,50.8242 7.68233,48.8242 4.5,47.5C 3.69929,45.9582 3.36596,44.2915 3.5,42.5C 3.38321,40.5165 4.04988,38.8498 5.5,37.5C 3.85254,35.6736 1.85254,34.3403 -0.5,33.5C -0.5,32.1667 -0.5,30.8333 -0.5,29.5C 0.833333,28.5 0.833333,27.5 -0.5,26.5C -0.5,25.8333 -0.5,25.1667 -0.5,24.5C 0.833333,24.1667 0.833333,23.8333 -0.5,23.5C -0.5,21.8333 -0.5,20.1667 -0.5,18.5C 3.40893,17.0809 5.74227,14.2475 6.5,10C 3.5998,6.62539 3.26647,3.12539 5.5,-0.5 Z"/></g>
<g><path style="opacity:0.196" fill="#5c0c10" d="M 3.5,42.5 C 3.36596,44.2915 3.69929,45.9582 4.5,47.5C 3.35089,47.2089 2.68423,46.3756 2.5,45C 2.52804,43.9302 2.86137,43.0968 3.5,42.5 Z"/></g>
</svg>
