<?xml version="1.0" encoding="UTF-8"?>
<!DOCTYPE svg PUBLIC "-//W3C//DTD SVG 1.1//EN" "http://www.w3.org/Graphics/SVG/1.1/DTD/svg11.dtd">
<svg xmlns="http://www.w3.org/2000/svg" version="1.1" width="76px" height="76px" style="shape-rendering:geometricPrecision; text-rendering:geometricPrecision; image-rendering:optimizeQuality; fill-rule:evenodd; clip-rule:evenodd" xmlns:xlink="http://www.w3.org/1999/xlink">
<g><path style="opacity:0.56" fill="#e51c22" d="M 32.5,-0.5 C 32.8333,-0.5 33.1667,-0.5 33.5,-0.5C 34.1667,0.166667 34.8333,0.833333 35.5,1.5C 35.369,2.23891 35.5357,2.90558 36,3.5C 39.0228,5.69762 41.8562,8.03096 44.5,10.5C 43.8921,11.7997 43.2255,13.1331 42.5,14.5C 42.7472,15.7133 43.4138,16.38 44.5,16.5C 45.6778,19.1975 47.5111,21.5309 50,23.5C 50.49,24.7932 50.6567,26.1266 50.5,27.5C 54.5498,26.6885 57.2165,28.1885 58.5,32C 62.7484,31.4693 65.0817,33.3026 65.5,37.5C 69.4573,39.0911 71.624,42.0911 72,46.5C 73.0391,47.7101 74.2058,48.7101 75.5,49.5C 75.5,50.5 75.5,51.5 75.5,52.5C 72.8333,53.5 72.8333,54.5 75.5,55.5C 75.5,56.1667 75.5,56.8333 75.5,57.5C 72.0283,57.1262 69.0283,58.1262 66.5,60.5C 66.423,65.1551 66.0896,69.8218 65.5,74.5C 64.209,74.2627 63.209,74.596 62.5,75.5C 61.5,75.5 60.5,75.5 59.5,75.5C 58.6372,72.5137 56.9705,71.5137 54.5,72.5C 50.8395,69.8761 47.6728,70.5428 45,74.5C 42.8535,72.5239 40.3535,71.1906 37.5,70.5C 36.8333,69.5 36.1667,68.5 35.5,67.5C 36.6953,66.0325 36.6953,64.5325 35.5,63C 35.7591,61.7387 36.4258,60.7387 37.5,60C 37.1667,59.6667 36.8333,59.3333 36.5,59C 30.8203,59.8121 25.1536,59.4788 19.5,58C 18.3384,56.1731 18.6718,54.5064 20.5,53C 20.0696,51.5659 19.2362,50.3992 18,49.5C 17.51,48.2068 17.3433,46.8734 17.5,45.5C 19.3588,45.5391 20.6921,44.7058 21.5,43C 19.656,36.8027 16.4893,31.3027 12,26.5C 12.0734,21.8956 10.0734,20.5623 6,22.5C 4.39497,21.8993 3.06164,20.8993 2,19.5C 2.42308,17.0967 2.25642,14.7634 1.5,12.5C 2.36863,10.283 2.70197,7.94965 2.5,5.5C 3.45773,4.0384 4.62439,2.70507 6,1.5C 9.58184,4.51895 12.7485,7.85229 15.5,11.5C 16.1293,13.9971 17.796,15.3304 20.5,15.5C 21.4972,15.5299 22.1639,15.0299 22.5,14C 22.3531,6.54073 25.6864,1.7074 32.5,-0.5 Z"/></g>
<g><path style="opacity:0.157" fill="#340a06" d="M 33.5,-0.5 C 34.5,-0.5 35.5,-0.5 36.5,-0.5C 36.6716,0.491622 36.3382,1.15829 35.5,1.5C 34.8333,0.833333 34.1667,0.166667 33.5,-0.5 Z"/></g>
<g><path style="opacity:0.482" fill="#871616" d="M 2.5,5.5 C 2.70197,7.94965 2.36863,10.283 1.5,12.5C 0.833333,12.5 0.166667,12.5 -0.5,12.5C -0.5,12.1667 -0.5,11.8333 -0.5,11.5C 0.985108,9.75115 1.98511,7.75115 2.5,5.5 Z"/></g>
<g><path style="opacity:0.475" fill="#841515" d="M 44.5,10.5 C 44.5535,12.4599 44.5535,14.4599 44.5,16.5C 43.4138,16.38 42.7472,15.7133 42.5,14.5C 43.2255,13.1331 43.8921,11.7997 44.5,10.5 Z"/></g>
<g><path style="opacity:0.439" fill="#841515" d="M 15.5,11.5 C 17.3885,12.604 19.0552,13.9373 20.5,15.5C 17.796,15.3304 16.1293,13.9971 15.5,11.5 Z"/></g>
</svg>
