<?xml version="1.0" encoding="UTF-8"?>
<!DOCTYPE svg PUBLIC "-//W3C//DTD SVG 1.1//EN" "http://www.w3.org/Graphics/SVG/1.1/DTD/svg11.dtd">
<svg xmlns="http://www.w3.org/2000/svg" version="1.1" width="93px" height="71px" style="shape-rendering:geometricPrecision; text-rendering:geometricPrecision; image-rendering:optimizeQuality; fill-rule:evenodd; clip-rule:evenodd" xmlns:xlink="http://www.w3.org/1999/xlink">
<g><path style="opacity:0.56" fill="#e51c22" d="M 48.5,-0.5 C 49.5,-0.5 50.5,-0.5 51.5,-0.5C 54.8293,1.01522 58.3293,2.34856 62,3.5C 61.0639,6.35696 60.7306,9.35696 61,12.5C 62.4916,14.665 64.325,16.4983 66.5,18C 67.5733,19.4162 67.5733,20.7496 66.5,22C 67.3247,23.6883 68.3247,23.8549 69.5,22.5C 71.204,24.0413 73.0374,25.3746 75,26.5C 76.4651,25.6705 77.9651,25.5038 79.5,26C 82.478,30.7185 86.8113,33.2185 92.5,33.5C 92.5,33.8333 92.5,34.1667 92.5,34.5C 90.0795,36.8776 88.9128,39.8776 89,43.5C 86.9817,44.2228 85.1484,45.2228 83.5,46.5C 82.8529,47.2739 82.5195,48.2739 82.5,49.5C 82.3402,51.3545 83.0069,52.6879 84.5,53.5C 85.7206,54.0283 86.8873,54.695 88,55.5C 88.2735,57.3289 89.1068,58.8289 90.5,60C 89.2889,61.1131 89.2889,62.2798 90.5,63.5C 88.2553,65.6784 86.2553,68.0117 84.5,70.5C 84.1667,70.5 83.8333,70.5 83.5,70.5C 83.1667,69.1667 82.8333,69.1667 82.5,70.5C 81.1667,70.5 79.8333,70.5 78.5,70.5C 78.189,69.5222 77.5223,68.8555 76.5,68.5C 73.138,69.9672 69.9714,69.6338 67,67.5C 66,68.1667 65,68.8333 64,69.5C 63.0039,67.256 61.5039,65.4227 59.5,64C 54.1273,61.4889 48.4607,59.8222 42.5,59C 41.0161,58.3378 39.6828,57.5045 38.5,56.5C 38.0269,55.0937 37.0269,54.427 35.5,54.5C 33.5222,53.8556 32.1889,52.5223 31.5,50.5C 28.2672,50.2469 25.9338,48.7469 24.5,46C 22.2779,45.3054 20.1113,44.4721 18,43.5C 15.3441,40.6782 12.3441,38.3448 9,36.5C 7.61238,37.5536 6.11238,37.7203 4.5,37C 3.21075,35.1978 1.54408,34.0312 -0.5,33.5C -0.5,33.1667 -0.5,32.8333 -0.5,32.5C 1.84886,31.0426 4.18219,29.7092 6.5,28.5C 8.17876,28.7148 9.17876,28.0481 9.5,26.5C 9.9721,22.4023 9.9721,18.4023 9.5,14.5C 14.3285,13.3339 19.3285,13.3339 24.5,14.5C 25.7495,15.7775 27.2495,16.7775 29,17.5C 29.3988,17.2716 29.5654,16.9382 29.5,16.5C 31.717,17.3686 34.0504,17.702 36.5,17.5C 36.4208,16.0695 36.7542,14.7362 37.5,13.5C 39.7419,11.4612 42.2419,9.79456 45,8.5C 45.3333,6.5 45.6667,4.5 46,2.5C 47.417,1.92206 48.2504,0.922058 48.5,-0.5 Z"/></g>
<g><path style="opacity:0.588" fill="#8d1616" d="M 24.5,14.5 C 24.56,13.9569 24.8933,13.6236 25.5,13.5C 26.7992,14.6937 28.1325,15.6937 29.5,16.5C 29.5654,16.9382 29.3988,17.2716 29,17.5C 27.2495,16.7775 25.7495,15.7775 24.5,14.5 Z"/></g>
<g><path style="opacity:0.369" fill="#601511" d="M 9.5,26.5 C 9.17876,28.0481 8.17876,28.7148 6.5,28.5C 7.29049,27.5987 8.29049,26.9321 9.5,26.5 Z"/></g>
<g><path style="opacity:0.439" fill="#8a1416" d="M 83.5,46.5 C 83.448,48.9029 83.7814,51.2362 84.5,53.5C 83.0069,52.6879 82.3402,51.3545 82.5,49.5C 82.5195,48.2739 82.8529,47.2739 83.5,46.5 Z"/></g>
<g><path style="opacity:0.537" fill="#581511" d="M 35.5,54.5 C 37.0269,54.427 38.0269,55.0937 38.5,56.5C 36.9731,56.573 35.9731,55.9063 35.5,54.5 Z"/></g>
</svg>
