<?xml version="1.0" encoding="UTF-8"?>
<!DOCTYPE svg PUBLIC "-//W3C//DTD SVG 1.1//EN" "http://www.w3.org/Graphics/SVG/1.1/DTD/svg11.dtd">
<svg xmlns="http://www.w3.org/2000/svg" version="1.1" width="51px" height="39px" style="shape-rendering:geometricPrecision; text-rendering:geometricPrecision; image-rendering:optimizeQuality; fill-rule:evenodd; clip-rule:evenodd" xmlns:xlink="http://www.w3.org/1999/xlink">
<g><path style="opacity:0.558" fill="#dc1c21" d="M 21.5,-0.5 C 22.1667,-0.5 22.8333,-0.5 23.5,-0.5C 24.2341,0.707917 24.5674,2.04125 24.5,3.5C 25.9778,3.23798 27.3112,3.57131 28.5,4.5C 31.1285,8.69485 33.9619,12.6949 37,16.5C 39.2912,15.6894 41.1246,16.5228 42.5,19C 44.0349,19.4962 45.5349,19.3295 47,18.5C 48.3026,18.9783 49.4693,19.645 50.5,20.5C 50.5,20.8333 50.5,21.1667 50.5,21.5C 47.0408,23.4512 43.3741,24.9512 39.5,26C 35.6021,31.4163 31.2688,35.583 26.5,38.5C 25.8333,38.5 25.1667,38.5 24.5,38.5C 23.5615,36.2436 23.5615,33.9103 24.5,31.5C 22.8008,31.6602 21.1341,31.4935 19.5,31C 16.282,28.2235 12.6153,26.2235 8.5,25C 6.95862,23.6288 5.62529,22.1288 4.5,20.5C 4.5,19.1667 5.16667,18.5 6.5,18.5C 8.75828,18.2249 9.09162,17.2249 7.5,15.5C 8.32496,14.6143 9.32496,14.281 10.5,14.5C 10.5,13.5 10.5,12.5 10.5,11.5C 12.2895,12.0134 13.9562,12.5134 15.5,13C 13.5867,11.2089 11.92,9.20887 10.5,7C 11.87,5.55868 12.87,3.89201 13.5,2C 16.4568,1.72059 19.1234,0.887257 21.5,-0.5 Z"/></g>
<g><path style="opacity:0.561" fill="#951818" d="M 6.5,18.5 C 5.16667,18.5 4.5,19.1667 4.5,20.5C 3.29208,19.7659 1.95875,19.4326 0.5,19.5C 0.237978,18.0222 0.571312,16.6888 1.5,15.5C 3.39635,16.2745 5.06302,17.2745 6.5,18.5 Z"/></g>
</svg>
