<?xml version="1.0" encoding="UTF-8"?>
<!DOCTYPE svg PUBLIC "-//W3C//DTD SVG 1.1//EN" "http://www.w3.org/Graphics/SVG/1.1/DTD/svg11.dtd">
<svg xmlns="http://www.w3.org/2000/svg" version="1.1" width="51px" height="70px" style="shape-rendering:geometricPrecision; text-rendering:geometricPrecision; image-rendering:optimizeQuality; fill-rule:evenodd; clip-rule:evenodd" xmlns:xlink="http://www.w3.org/1999/xlink">
<g><path style="opacity:0.56" fill="#e11c22" d="M 12.5,-0.5 C 13.1667,-0.5 13.8333,-0.5 14.5,-0.5C 16.0188,0.409824 17.6854,1.24316 19.5,2C 20.3366,3.01127 20.67,4.17793 20.5,5.5C 20.2852,7.17876 20.9519,8.17876 22.5,8.5C 24.64,8.59732 26.8066,8.93065 29,9.5C 31.3331,9.41675 33.1665,8.41675 34.5,6.5C 36.8333,8.16667 38.8333,10.1667 40.5,12.5C 43.6829,12.7772 45.6829,14.4439 46.5,17.5C 45.1574,19.8391 43.824,22.1724 42.5,24.5C 39.9428,23.4659 38.6095,24.4659 38.5,27.5C 33.3819,29.1052 30.0486,27.2719 28.5,22C 27.552,21.5172 26.552,21.3505 25.5,21.5C 25.6766,23.9806 24.6766,25.8139 22.5,27C 24.5582,28.8079 24.8916,30.9746 23.5,33.5C 24.8734,33.3433 26.2068,33.51 27.5,34C 29.8706,36.8525 32.8706,38.6858 36.5,39.5C 36.2907,40.086 35.9574,40.586 35.5,41C 36.5786,41.956 37.7453,42.7894 39,43.5C 39.8812,46.93 41.0479,50.2633 42.5,53.5C 45.1221,55.4113 47.2888,57.7446 49,60.5C 49.7109,64.4984 48.7109,65.165 46,62.5C 45.4,64.7477 44.2333,67.081 42.5,69.5C 41.5,69.5 40.5,69.5 39.5,69.5C 37.8683,66.9274 35.7016,66.2608 33,67.5C 30.0115,66.3446 26.8448,65.5113 23.5,65C 21.2429,61.7064 18.2429,59.2064 14.5,57.5C 12.8333,56.1667 11.1667,56.1667 9.5,57.5C 7.63854,56.4717 6.30521,54.9717 5.5,53C 3.86586,52.5065 2.19919,52.3398 0.5,52.5C 0.5,50.5 0.5,48.5 0.5,46.5C 2.59136,46.3184 4.59136,46.6518 6.5,47.5C 7.88053,47.0004 8.5472,46.0004 8.5,44.5C 6.95971,40.7865 4.79304,37.4532 2,34.5C 2.2502,29.8659 1.7502,25.1993 0.5,20.5C 2.27855,19.3303 3.27855,17.6636 3.5,15.5C 3.68299,13.0637 3.01632,10.897 1.5,9C 2.16667,8.33333 2.83333,7.66667 3.5,7C 2.54943,6.28248 2.38277,5.44915 3,4.5C 5.90739,2.13171 9.07406,0.465044 12.5,-0.5 Z"/></g>
<g><path style="opacity:0.298" fill="#651211" d="M 20.5,5.5 C 21.4013,6.29049 22.0679,7.29049 22.5,8.5C 20.9519,8.17876 20.2852,7.17876 20.5,5.5 Z"/></g>
<g><path style="opacity:0.133" fill="#6a1410" d="M 3.5,15.5 C 3.27855,17.6636 2.27855,19.3303 0.5,20.5C 0.5,19.8333 0.166667,19.5 -0.5,19.5C -0.5,19.1667 -0.5,18.8333 -0.5,18.5C 1.14054,17.853 2.47387,16.853 3.5,15.5 Z"/></g>
</svg>
