<?xml version="1.0" encoding="UTF-8"?>
<!DOCTYPE svg PUBLIC "-//W3C//DTD SVG 1.1//EN" "http://www.w3.org/Graphics/SVG/1.1/DTD/svg11.dtd">
<svg xmlns="http://www.w3.org/2000/svg" version="1.1" width="84px" height="73px" style="shape-rendering:geometricPrecision; text-rendering:geometricPrecision; image-rendering:optimizeQuality; fill-rule:evenodd; clip-rule:evenodd" xmlns:xlink="http://www.w3.org/1999/xlink">
<g><path style="opacity:0.56" fill="#e21c22" d="M 12.5,-0.5 C 13.5,-0.5 14.5,-0.5 15.5,-0.5C 16.9774,2.51847 18.3107,5.51847 19.5,8.5C 24.1533,8.70531 28.4867,9.87198 32.5,12C 31.4326,14.0981 30.9326,16.2648 31,18.5C 33.4275,19.7814 35.9275,20.7814 38.5,21.5C 38.5,19.8333 38.5,18.1667 38.5,16.5C 39.8221,16.33 40.9887,16.6634 42,17.5C 44.5669,13.45 46.0669,9.28336 46.5,5C 52.9142,4.05049 59.2475,2.71716 65.5,1C 66.056,0.617425 66.3893,0.117425 66.5,-0.5C 66.8333,-0.5 67.1667,-0.5 67.5,-0.5C 68.1667,0.833333 68.8333,0.833333 69.5,-0.5C 70.1667,-0.5 70.8333,-0.5 71.5,-0.5C 73.3758,2.66337 75.0425,5.83004 76.5,9C 76.2409,10.2613 75.5742,11.2613 74.5,12C 75.2776,15.1468 76.1109,18.3135 77,21.5C 78.1723,25.8583 80.3389,29.525 83.5,32.5C 83.5,35.1667 83.5,37.8333 83.5,40.5C 81.8546,39.5213 80.5213,38.188 79.5,36.5C 76.1667,35.1667 72.8333,35.1667 69.5,36.5C 68.6143,37.325 68.281,38.325 68.5,39.5C 65.6755,39.0807 63.5088,40.0807 62,42.5C 60.9148,41.7069 59.7481,41.0402 58.5,40.5C 57.452,41.3829 56.2853,42.0496 55,42.5C 53.2017,41.4962 51.3684,40.9962 49.5,41C 49.9574,41.414 50.2907,41.914 50.5,42.5C 47.6692,48.2615 43.0025,51.5948 36.5,52.5C 34.1042,57.6392 30.6042,58.6392 26,55.5C 23.2417,57.7173 20.075,59.0506 16.5,59.5C 16.2947,64.202 13.9614,67.202 9.5,68.5C 8.17376,69.6422 7.17376,70.9755 6.5,72.5C 6.16667,72.5 5.83333,72.5 5.5,72.5C 5.5,71.5 5.5,70.5 5.5,69.5C 1.68928,69.8194 0.355945,68.3194 1.5,65C 0.955796,64.2828 0.28913,63.7828 -0.5,63.5C -0.5,62.8333 -0.5,62.1667 -0.5,61.5C 0.314913,60.5707 1.14825,59.5707 2,58.5C 2.4196,54.8086 2.9196,51.1419 3.5,47.5C 4.83333,47.5 6.16667,47.5 7.5,47.5C 7.75256,42.9792 8.75256,38.6459 10.5,34.5C 9.87206,32.7419 8.87206,31.2419 7.5,30C 9.01899,28.6487 10.3523,27.1487 11.5,25.5C 10.086,24.376 8.58601,23.376 7,22.5C 6.50649,20.8659 6.33982,19.1992 6.5,17.5C 8.33073,16.9478 9.9974,16.9478 11.5,17.5C 12.8655,15.4464 13.1988,13.4464 12.5,11.5C 13.1098,10.609 13.4431,9.60895 13.5,8.5C 13.6302,5.62523 13.2968,2.62523 12.5,-0.5 Z"/></g>
<g><path style="opacity:0.098" fill="#5b0e0e" d="M 13.5,8.5 C 13.4431,9.60895 13.1098,10.609 12.5,11.5C 11.2848,10.221 11.6182,9.22104 13.5,8.5 Z"/></g>
</svg>
