<?xml version="1.0" encoding="UTF-8"?>
<!DOCTYPE svg PUBLIC "-//W3C//DTD SVG 1.1//EN" "http://www.w3.org/Graphics/SVG/1.1/DTD/svg11.dtd">
<svg xmlns="http://www.w3.org/2000/svg" version="1.1" width="85px" height="88px" style="shape-rendering:geometricPrecision; text-rendering:geometricPrecision; image-rendering:optimizeQuality; fill-rule:evenodd; clip-rule:evenodd" xmlns:xlink="http://www.w3.org/1999/xlink">
<g><path style="opacity:0.56" fill="#e31c22" d="M 12.5,-0.5 C 13.5,-0.5 14.5,-0.5 15.5,-0.5C 18.0528,0.887006 20.3861,2.72034 22.5,5C 22.0426,5.41395 21.7093,5.91395 21.5,6.5C 26.3603,8.83362 30.8603,8.16696 35,4.5C 37.6292,5.209 40.1292,6.209 42.5,7.5C 41.218,9.17923 40.218,11.0126 39.5,13C 45.7466,28.5815 56.2466,40.4148 71,48.5C 71.3793,51.0301 72.2126,53.3635 73.5,55.5C 74.1667,58.1667 75.8333,59.8333 78.5,60.5C 80.2459,62.2516 82.2459,63.5849 84.5,64.5C 84.5,65.5 84.5,66.5 84.5,67.5C 82.2282,69.0181 80.8949,71.1848 80.5,74C 76.63,74.1051 72.9634,74.9385 69.5,76.5C 71.756,77.4209 72.756,79.0876 72.5,81.5C 71.1667,81.5 69.8333,81.5 68.5,81.5C 68.7035,83.3904 68.0368,84.8904 66.5,86C 67.056,86.3826 67.3893,86.8826 67.5,87.5C 66.5,87.5 65.5,87.5 64.5,87.5C 63.5494,85.3805 62.0494,83.7138 60,82.5C 59.8078,80.4233 59.3078,78.4233 58.5,76.5C 57.1686,78.8269 55.5019,80.8269 53.5,82.5C 49.5408,80.7543 48.2074,77.9209 49.5,74C 48.2068,73.51 46.8734,73.3433 45.5,73.5C 45.186,68.1271 44.186,62.9604 42.5,58C 42.6448,57.228 42.9781,56.5613 43.5,56C 41.4127,55.2078 39.5793,54.0412 38,52.5C 36.7604,49.588 35.0937,46.9213 33,44.5C 32.6667,42.8333 32.3333,41.1667 32,39.5C 31.6121,40.428 30.9454,41.0946 30,41.5C 22.218,36.0527 15.3847,29.5527 9.5,22C 8.20677,21.51 6.87344,21.3433 5.5,21.5C 5.65668,20.1266 5.49001,18.7932 5,17.5C 3.36636,14.9608 1.53302,12.6275 -0.5,10.5C -0.5,9.5 -0.5,8.5 -0.5,7.5C 0.403972,6.79105 0.737305,5.79105 0.5,4.5C 2.56954,4.55138 4.40287,3.88472 6,2.5C 6.77203,2.6448 7.4387,2.97814 8,3.5C 9.39683,1.92975 10.8968,0.596413 12.5,-0.5 Z"/></g>
<g><path style="opacity:0.537" fill="#55140f" d="M 73.5,55.5 C 75.5,56.8333 77.1667,58.5 78.5,60.5C 75.8333,59.8333 74.1667,58.1667 73.5,55.5 Z"/></g>
</svg>
