<?xml version="1.0" encoding="UTF-8"?>
<!DOCTYPE svg PUBLIC "-//W3C//DTD SVG 1.1//EN" "http://www.w3.org/Graphics/SVG/1.1/DTD/svg11.dtd">
<svg xmlns="http://www.w3.org/2000/svg" version="1.1" width="77px" height="44px" style="shape-rendering:geometricPrecision; text-rendering:geometricPrecision; image-rendering:optimizeQuality; fill-rule:evenodd; clip-rule:evenodd" xmlns:xlink="http://www.w3.org/1999/xlink">
<g><path style="opacity:0.559" fill="#db1c21" d="M 48.5,-0.5 C 48.8333,-0.5 49.1667,-0.5 49.5,-0.5C 50.9879,0.831133 51.6545,2.16447 51.5,3.5C 57.1782,2.41627 62.8448,1.58294 68.5,1C 71.0625,3.73296 73.7291,6.23296 76.5,8.5C 76.5,8.83333 76.5,9.16667 76.5,9.5C 75.5416,9.9528 74.7083,10.6195 74,11.5C 72.5104,9.442 70.5104,8.10866 68,7.5C 64.0431,11.6402 59.7098,15.3069 55,18.5C 52.9461,17.9212 50.9461,17.5879 49,17.5C 48.5357,18.0944 48.369,18.7611 48.5,19.5C 47.4168,19.4606 46.4168,19.1272 45.5,18.5C 44.6143,19.325 44.281,20.325 44.5,21.5C 44.5,21.8333 44.5,22.1667 44.5,22.5C 44.5,23.5 44.5,24.5 44.5,25.5C 44.2053,27.7354 44.5386,29.7354 45.5,31.5C 42.4927,32.8032 39.4927,34.3032 36.5,36C 32.6124,36.2168 28.9458,36.0501 25.5,35.5C 23.8404,36.7866 22.1738,38.1199 20.5,39.5C 21.5498,40.4288 21.5498,41.0954 20.5,41.5C 18.2719,41.2231 16.6053,40.2231 15.5,38.5C 15.7135,36.8561 15.3802,35.3561 14.5,34C 11.3908,33.356 8.55748,32.1893 6,30.5C 3.29841,31.7392 1.13174,31.0726 -0.5,28.5C -0.5,28.1667 -0.5,27.8333 -0.5,27.5C 1.65026,26.1846 2.9836,24.1846 3.5,21.5C 5.31588,23.4414 7.31588,24.1081 9.5,23.5C 11.7094,24.1062 13.876,24.7728 16,25.5C 18.5074,23.8447 21.3408,23.0114 24.5,23C 25.3946,19.5396 27.3946,16.873 30.5,15C 38.0353,15.6631 40.0353,12.8298 36.5,6.5C 39.1459,4.43201 42.1459,3.09868 45.5,2.5C 46.3398,1.26501 47.3398,0.265012 48.5,-0.5 Z"/></g>
<g><path style="opacity:0.475" fill="#8c1516" d="M 67.5,13.5 C 70.1873,13.3359 72.854,13.5026 75.5,14C 72.4284,16.0597 69.7617,15.893 67.5,13.5 Z"/></g>
<g><path style="opacity:0.467" fill="#730f12" d="M 63.5,15.5 C 64.552,15.3505 65.552,15.5172 66.5,16C 64.8346,17.8401 62.8346,18.5068 60.5,18C 61.5707,17.1482 62.5707,16.3149 63.5,15.5 Z"/></g>
<g><path style="opacity:0.231" fill="#51110e" d="M 48.5,20.5 C 48.5,20.8333 48.5,21.1667 48.5,21.5C 47.1667,21.8333 45.8333,22.1667 44.5,22.5C 44.5,22.1667 44.5,21.8333 44.5,21.5C 45.7079,20.7659 47.0413,20.4326 48.5,20.5 Z"/></g>
<g><path style="opacity:0.557" fill="#bf1a1d" d="M 48.5,19.5 C 50.4358,20.259 52.2691,21.259 54,22.5C 54.772,22.3552 55.4387,22.0219 56,21.5C 55.9421,23.4354 55.1088,25.1021 53.5,26.5C 53.1667,26.5 52.8333,26.5 52.5,26.5C 51.078,27.925 49.4113,28.925 47.5,29.5C 46.9569,29.44 46.6236,29.1067 46.5,28.5C 47.9501,27.1502 48.6168,25.4835 48.5,23.5C 48.5,22.8333 48.5,22.1667 48.5,21.5C 48.5,21.1667 48.5,20.8333 48.5,20.5C 48.5,20.1667 48.5,19.8333 48.5,19.5 Z"/></g>
<g><path style="opacity:0.51" fill="#891516" d="M 48.5,23.5 C 48.6168,25.4835 47.9501,27.1502 46.5,28.5C 46.6236,29.1067 46.9569,29.44 47.5,29.5C 47.1667,30.5 46.5,31.1667 45.5,31.5C 44.5386,29.7354 44.2053,27.7354 44.5,25.5C 45.1174,25.6107 45.6174,25.944 46,26.5C 46.3768,25.0577 47.2101,24.0577 48.5,23.5 Z"/></g>
<g><path style="opacity:0.573" fill="#741614" d="M 52.5,26.5 C 52.8333,26.5 53.1667,26.5 53.5,26.5C 54.9755,27.262 56.3088,27.5953 57.5,27.5C 56.6701,30.0164 55.6701,32.3498 54.5,34.5C 54.1788,32.9519 53.1788,32.2852 51.5,32.5C 51.3691,31.6236 51.7025,30.9569 52.5,30.5C 53.3957,31.5063 54.0623,31.5063 54.5,30.5C 53.624,29.7492 52.624,29.2492 51.5,29C 52.2524,28.3292 52.5858,27.4959 52.5,26.5 Z"/></g>
<g><path style="opacity:0.518" fill="#761514" d="M 66.5,30.5 C 67.3764,30.3691 68.0431,30.7025 68.5,31.5C 65.7404,35.564 65.0737,35.2307 66.5,30.5 Z"/></g>
<g><path style="opacity:0.514" fill="#d51a1f" d="M 51.5,32.5 C 53.1788,32.2852 54.1788,32.9519 54.5,34.5C 52.9557,34.7031 51.6223,35.3698 50.5,36.5C 49.8933,36.3764 49.56,36.0431 49.5,35.5C 49.427,33.9731 50.0937,32.9731 51.5,32.5 Z"/></g>
<g><path style="opacity:0.529" fill="#691214" d="M 61.5,33.5 C 62.4971,32.2875 63.4971,32.4542 64.5,34C 63.4232,34.4696 62.4232,34.3029 61.5,33.5 Z"/></g>
<g><path style="opacity:0.553" fill="#781414" d="M 54.5,34.5 C 53.5604,36.6125 52.3937,38.6125 51,40.5C 50.7508,39.376 50.2508,38.376 49.5,37.5C 45.5338,38.0665 45.5338,37.3999 49.5,35.5C 49.56,36.0431 49.8933,36.3764 50.5,36.5C 51.6223,35.3698 52.9557,34.7031 54.5,34.5 Z"/></g>
<g><path style="opacity:0.412" fill="#661613" d="M 42.5,39.5 C 43.3864,38.2241 44.3864,38.2241 45.5,39.5C 44.5754,40.5624 43.5754,40.5624 42.5,39.5 Z"/></g>
<g><path style="opacity:0.545" fill="#781214" d="M 15.5,38.5 C 16.6053,40.2231 18.2719,41.2231 20.5,41.5C 18.9476,41.5811 17.2809,41.7478 15.5,42C 12.9296,40.6507 12.9296,39.484 15.5,38.5 Z"/></g>
<g><path style="opacity:0.369" fill="#830f15" d="M 45.5,43.5 C 45.1667,43.5 44.8333,43.5 44.5,43.5C 43.537,42.6365 43.537,41.9698 44.5,41.5C 45.2975,41.9569 45.6309,42.6236 45.5,43.5 Z"/></g>
</svg>
