<?xml version="1.0" encoding="UTF-8"?>
<!DOCTYPE svg PUBLIC "-//W3C//DTD SVG 1.1//EN" "http://www.w3.org/Graphics/SVG/1.1/DTD/svg11.dtd">
<svg xmlns="http://www.w3.org/2000/svg" version="1.1" width="88px" height="72px" style="shape-rendering:geometricPrecision; text-rendering:geometricPrecision; image-rendering:optimizeQuality; fill-rule:evenodd; clip-rule:evenodd" xmlns:xlink="http://www.w3.org/1999/xlink">
<g><path style="opacity:0.56" fill="#e31c22" d="M 14.5,-0.5 C 16.5,-0.5 18.5,-0.5 20.5,-0.5C 22.6831,2.53289 24.3498,5.86622 25.5,9.5C 32.0651,16.275 40.0651,18.6083 49.5,16.5C 54.1627,16.6053 54.996,17.9386 52,20.5C 52.1282,22.445 51.9615,24.2784 51.5,26C 53.6068,28.2267 55.9401,30.2267 58.5,32C 60.8436,31.2318 63.1769,30.0651 65.5,28.5C 67.8838,30.7223 70.5505,31.0556 73.5,29.5C 73.4056,32.5406 74.9056,34.2072 78,34.5C 78.4842,38.117 79.6508,41.4503 81.5,44.5C 80.8333,45.5 80.1667,46.5 79.5,47.5C 80.7612,50.2637 82.5946,52.597 85,54.5C 86.8789,57.8005 86.8789,61.1338 85,64.5C 83.103,62.9837 80.9363,62.317 78.5,62.5C 78.5871,65.7387 77.9205,68.7387 76.5,71.5C 75.1667,71.5 73.8333,71.5 72.5,71.5C 69.6554,70.0778 67.322,67.9111 65.5,65C 62.2858,66.3009 60.4525,65.1342 60,61.5C 56.273,60.1325 53.273,57.7992 51,54.5C 50.6667,54.8333 50.3333,55.1667 50,55.5C 48.9384,54.1007 47.605,53.1007 46,52.5C 44.6667,53.8333 43.3333,53.8333 42,52.5C 40.8319,53.5089 39.6652,54.5089 38.5,55.5C 34.8784,54.9123 31.545,55.9123 28.5,58.5C 27.2889,59.7202 27.2889,60.8869 28.5,62C 26.5378,63.621 24.8712,65.4543 23.5,67.5C 20.9319,64.3805 17.5985,62.5471 13.5,62C 12.4663,59.336 10.7997,59.1693 8.5,61.5C 6.24873,60.3052 3.9154,59.3052 1.5,58.5C 0.571312,57.3112 0.237978,55.9778 0.5,54.5C 1.5,54.5 2.5,54.5 3.5,54.5C 3.76834,51.8806 3.435,49.3806 2.5,47C 4.78174,45.7035 7.11508,45.2035 9.5,45.5C 9.16667,44.8333 8.83333,44.1667 8.5,43.5C 10.3952,41.1329 10.8952,38.4663 10,35.5C 8.05653,33.8492 6.55653,31.8492 5.5,29.5C 7.34126,28.7696 9.17459,28.1029 11,27.5C 14.0658,23.6842 16.2325,19.6842 17.5,15.5C 16.1074,11.7143 14.4407,8.04768 12.5,4.5C 13.1744,2.80452 13.8411,1.13785 14.5,-0.5 Z"/></g>
</svg>
