<?xml version="1.0" encoding="UTF-8"?>
<!DOCTYPE svg PUBLIC "-//W3C//DTD SVG 1.1//EN" "http://www.w3.org/Graphics/SVG/1.1/DTD/svg11.dtd">
<svg xmlns="http://www.w3.org/2000/svg" version="1.1" width="61px" height="67px" style="shape-rendering:geometricPrecision; text-rendering:geometricPrecision; image-rendering:optimizeQuality; fill-rule:evenodd; clip-rule:evenodd" xmlns:xlink="http://www.w3.org/1999/xlink">
<g><path style="opacity:0.56" fill="#de1c21" d="M 24.5,-0.5 C 25.8333,-0.5 27.1667,-0.5 28.5,-0.5C 32.399,-0.0678808 36.0656,1.26545 39.5,3.5C 45.5722,2.23851 47.9055,4.57185 46.5,10.5C 44.9519,10.8212 44.2852,11.8212 44.5,13.5C 42.9257,15.643 41.5923,17.9763 40.5,20.5C 41.4914,24.3238 43.1581,27.8238 45.5,31C 44.6681,33.4783 44.5014,35.9783 45,38.5C 50.9873,40.3918 51.8206,43.8918 47.5,49C 49.0638,50.6436 50.7305,52.1436 52.5,53.5C 54.4049,54.1523 56.4049,54.3189 58.5,54C 59.0848,55.3024 59.7515,56.469 60.5,57.5C 60.5,58.8333 60.5,60.1667 60.5,61.5C 59.1851,62.4756 57.8518,63.4756 56.5,64.5C 55.914,64.2907 55.414,63.9574 55,63.5C 52.834,64.7315 50.6674,65.7315 48.5,66.5C 47.5,66.5 46.5,66.5 45.5,66.5C 45.5,66.1667 45.5,65.8333 45.5,65.5C 45.5,64.1667 45.5,62.8333 45.5,61.5C 44.1667,61.5 42.8333,61.5 41.5,61.5C 40.7101,60.2058 39.7101,59.0391 38.5,58C 35.5184,57.502 32.5184,57.3354 29.5,57.5C 29.5,58.5 29.5,59.5 29.5,60.5C 26.0901,60.5429 22.7568,60.0429 19.5,59C 11.7681,53.1154 5.43481,46.282 0.5,38.5C 5.30236,37.7135 9.96902,36.8801 14.5,36C 16.3549,39.3836 18.1883,42.217 20,44.5C 21.0782,39.5013 22.9116,39.3346 25.5,44C 27.6954,45.373 30.0288,45.7063 32.5,45C 30.8866,42.7724 30.22,40.2724 30.5,37.5C 33.2048,37.6198 33.8715,36.6198 32.5,34.5C 31.3493,33.269 30.1827,33.269 29,34.5C 26.4333,31.3917 23.4333,28.725 20,26.5C 19.5357,25.9056 19.369,25.2389 19.5,24.5C 18.7659,23.2921 18.4326,21.9587 18.5,20.5C 17.375,19.3478 17.375,18.3478 18.5,17.5C 19.6857,16.2946 19.6857,14.9613 18.5,13.5C 18.2381,11.4362 17.0714,10.1029 15,9.5C 14.3655,6.45191 15.6988,4.78524 19,4.5C 19.8732,4.73546 20.7065,5.0688 21.5,5.5C 23.415,3.92878 24.415,1.92878 24.5,-0.5 Z"/></g>
<g><path style="opacity:0.169" fill="#5b1512" d="M 46.5,10.5 C 46.0679,11.7095 45.4013,12.7095 44.5,13.5C 44.2852,11.8212 44.9519,10.8212 46.5,10.5 Z"/></g>
<g><path style="opacity:0.459" fill="#631510" d="M 18.5,13.5 C 19.6857,14.9613 19.6857,16.2946 18.5,17.5C 17.6457,15.965 17.6457,14.6316 18.5,13.5 Z"/></g>
<g><path style="opacity:0.098" fill="#4c100b" d="M 18.5,20.5 C 18.4326,21.9587 18.7659,23.2921 19.5,24.5C 18.4138,24.38 17.7472,23.7133 17.5,22.5C 17.5427,21.5836 17.8761,20.9169 18.5,20.5 Z"/></g>
<g><path style="opacity:0.588" fill="#691613" d="M 41.5,61.5 C 42.8333,61.5 44.1667,61.5 45.5,61.5C 45.5,62.8333 45.5,64.1667 45.5,65.5C 43.4508,65.2942 43.1175,64.4609 44.5,63C 43.2625,62.7679 42.2625,62.2679 41.5,61.5 Z"/></g>
</svg>
