<?xml version="1.0" encoding="UTF-8"?>
<!DOCTYPE svg PUBLIC "-//W3C//DTD SVG 1.1//EN" "http://www.w3.org/Graphics/SVG/1.1/DTD/svg11.dtd">
<svg xmlns="http://www.w3.org/2000/svg" version="1.1" width="40px" height="71px" style="shape-rendering:geometricPrecision; text-rendering:geometricPrecision; image-rendering:optimizeQuality; fill-rule:evenodd; clip-rule:evenodd" xmlns:xlink="http://www.w3.org/1999/xlink">
<g><path style="opacity:0.559" fill="#e41c22" d="M 13.5,-0.5 C 14.1667,-0.5 14.8333,-0.5 15.5,-0.5C 16.9681,1.61093 16.6348,3.44426 14.5,5C 18.2322,11.4389 22.8989,12.4389 28.5,8C 31.7146,7.49796 33.3812,8.99796 33.5,12.5C 31.8921,15.4265 32.8921,16.9265 36.5,17C 37.3307,18.8922 38.3307,20.7256 39.5,22.5C 39.5,23.1667 39.5,23.8333 39.5,24.5C 38.6319,27.3217 37.2986,29.9883 35.5,32.5C 34.1667,32.5 32.8333,32.5 31.5,32.5C 31.423,36.2148 31.7564,39.8815 32.5,43.5C 32.238,44.9778 32.5713,46.3112 33.5,47.5C 39.0326,49.2261 39.866,52.2261 36,56.5C 33.427,55.0175 31.2603,55.5175 29.5,58C 29.7036,60.6213 29.7036,63.4547 29.5,66.5C 28.1779,66.67 27.0113,66.3366 26,65.5C 25.7216,66.4158 25.2216,67.0825 24.5,67.5C 22.8333,68.8333 21.1667,68.8333 19.5,67.5C 18.5041,67.4142 17.6708,67.7476 17,68.5C 11.694,65.1901 7.02729,61.1901 3,56.5C 2.72662,54.8988 2.22662,53.3988 1.5,52C 2.06453,47.584 3.39787,43.584 5.5,40C 2.62538,35.8057 0.625377,31.3057 -0.5,26.5C -0.5,25.5 -0.5,24.5 -0.5,23.5C 0.869876,23.1435 1.86988,22.3102 2.5,21C 3.72771,17.4413 5.39438,14.108 7.5,11C 5.65393,9.11679 4.8206,6.95013 5,4.5C 7.53076,2.09674 10.3641,0.430076 13.5,-0.5 Z"/></g>
<g><path style="opacity:0.588" fill="#8c1817" d="M 35.5,32.5 C 34.791,33.404 33.791,33.7373 32.5,33.5C 32.9021,36.9662 32.9021,40.2995 32.5,43.5C 31.7564,39.8815 31.423,36.2148 31.5,32.5C 32.8333,32.5 34.1667,32.5 35.5,32.5 Z"/></g>
<g><path style="opacity:0.588" fill="#891617" d="M 19.5,67.5 C 21.1667,68.8333 22.8333,68.8333 24.5,67.5C 23.8333,68.5 23.1667,69.5 22.5,70.5C 21.8333,70.5 21.1667,70.5 20.5,70.5C 20.4431,69.391 20.1098,68.391 19.5,67.5 Z"/></g>
</svg>
