<?xml version="1.0" encoding="UTF-8"?>
<!DOCTYPE svg PUBLIC "-//W3C//DTD SVG 1.1//EN" "http://www.w3.org/Graphics/SVG/1.1/DTD/svg11.dtd">
<svg xmlns="http://www.w3.org/2000/svg" version="1.1" width="82px" height="69px" style="shape-rendering:geometricPrecision; text-rendering:geometricPrecision; image-rendering:optimizeQuality; fill-rule:evenodd; clip-rule:evenodd" xmlns:xlink="http://www.w3.org/1999/xlink">
<g><path style="opacity:0.518" fill="#621713" d="M 13.5,2.5 C 12.5,2.5 11.5,2.5 10.5,2.5C 11.5,-0.166667 12.5,-0.166667 13.5,2.5 Z"/></g>
<g><path style="opacity:0.559" fill="#e41c22" d="M 71.5,26.5 C 73.3432,30.0092 76.3432,31.3426 80.5,30.5C 79.9087,33.6136 78.242,36.1136 75.5,38C 75.6144,42.4505 73.7811,46.2839 70,49.5C 68.4883,55.8653 67.9883,62.1987 68.5,68.5C 67.1667,68.5 65.8333,68.5 64.5,68.5C 63.8333,67.1667 63.1667,67.1667 62.5,68.5C 62.1667,68.5 61.8333,68.5 61.5,68.5C 59.587,65.7535 57.2537,63.2535 54.5,61C 50.8687,61.7301 47.8687,60.5634 45.5,57.5C 44.8333,58.1667 44.1667,58.8333 43.5,59.5C 43.1667,59.1667 42.8333,58.8333 42.5,58.5C 42.6524,56.0996 42.1524,53.7663 41,51.5C 36.6453,49.634 34.8119,46.3007 35.5,41.5C 36.2389,41.631 36.9056,41.4643 37.5,41C 38.7383,40.31 38.7383,39.81 37.5,39.5C 37.5299,38.5028 37.0299,37.8361 36,37.5C 31.8933,37.2268 28.3933,35.7268 25.5,33C 26.1007,31.395 27.1007,30.0616 28.5,29C 22.7499,26.3768 16.9166,23.8768 11,21.5C 9.84259,17.6542 11.0093,14.8208 14.5,13C 13.8742,12.2496 13.3742,11.4162 13,10.5C 10.4565,12.9105 7.45651,14.5772 4,15.5C 1.77312,14.8827 0.273119,13.5494 -0.5,11.5C -0.5,10.8333 -0.5,10.1667 -0.5,9.5C 3.76896,7.85667 7.43562,5.52334 10.5,2.5C 11.5,2.5 12.5,2.5 13.5,2.5C 15.1379,3.1589 16.8045,3.82556 18.5,4.5C 20.0947,0.94393 22.7613,-0.222737 26.5,1C 28,2.5 29.5,4 31,5.5C 32.0495,4.48288 33.2161,4.31621 34.5,5C 36.2746,6.43894 38.2746,7.43894 40.5,8C 41.7717,9.30678 42.7717,10.8068 43.5,12.5C 52.235,13.1275 59.5683,16.9608 65.5,24C 67.6406,24.5725 69.6406,25.4058 71.5,26.5 Z"/></g>
<g><path style="opacity:0.263" fill="#6b1412" d="M 71.5,26.5 C 74.3291,28.9784 77.6625,29.9784 81.5,29.5C 81.5,29.8333 81.5,30.1667 81.5,30.5C 81.1667,30.5 80.8333,30.5 80.5,30.5C 76.3432,31.3426 73.3432,30.0092 71.5,26.5 Z"/></g>
<g><path style="opacity:0.616" fill="#661612" d="M 37.5,39.5 C 38.7383,39.81 38.7383,40.31 37.5,41C 36.9056,41.4643 36.2389,41.631 35.5,41.5C 35.8333,40.5 36.5,39.8333 37.5,39.5 Z"/></g>
</svg>
