<?xml version="1.0" encoding="UTF-8"?>
<!DOCTYPE svg PUBLIC "-//W3C//DTD SVG 1.1//EN" "http://www.w3.org/Graphics/SVG/1.1/DTD/svg11.dtd">
<svg xmlns="http://www.w3.org/2000/svg" version="1.1" width="310px" height="205px" style="shape-rendering:geometricPrecision; text-rendering:geometricPrecision; image-rendering:optimizeQuality; fill-rule:evenodd; clip-rule:evenodd" xmlns:xlink="http://www.w3.org/1999/xlink">
<g><path style="opacity:0.345" fill="#b5171c" d="M 286.5,-0.5 C 287.167,-0.5 287.833,-0.5 288.5,-0.5C 287.833,6.16667 287.167,6.16667 286.5,-0.5 Z"/></g>
<g><path style="opacity:0.204" fill="#9b1318" d="M 283.5,3.5 C 286.001,3.51092 286.168,4.17759 284,5.5C 283.536,4.90558 283.369,4.23891 283.5,3.5 Z"/></g>
<g><path style="opacity:0.333" fill="#a01317" d="M 279.5,7.5 C 280.239,7.36899 280.906,7.53566 281.5,8C 280.234,9.98268 278.568,10.9827 276.5,11C 277.71,9.9609 278.71,8.79423 279.5,7.5 Z"/></g>
<g><path style="opacity:0.388" fill="#591410" d="M 283.5,8.5 C 284.522,9.89171 284.189,11.225 282.5,12.5C 282.167,12.3333 281.833,12.1667 281.5,12C 282.305,10.8873 282.972,9.72065 283.5,8.5 Z"/></g>
<g><path style="opacity:0.162" fill="#400c09" d="M 198.5,11.5 C 199.756,11.4614 200.756,11.9614 201.5,13C 200.033,14.0975 199.199,15.5975 199,17.5C 198.505,15.5273 198.338,13.5273 198.5,11.5 Z"/></g>
<g><path style="opacity:0.329" fill="#671212" d="M 274.5,11.5 C 275.688,13.4959 275.021,14.3293 272.5,14C 273.381,13.2917 274.047,12.4584 274.5,11.5 Z"/></g>
<g><path style="opacity:0.451" fill="#611112" d="M 280.5,13.5 C 281.376,13.3691 282.043,13.7025 282.5,14.5C 280.993,18.3548 280.326,18.0214 280.5,13.5 Z"/></g>
<g><path style="opacity:0.573" fill="#4a120f" d="M 172.5,38.5 C 175.137,40.1538 174.803,40.6538 171.5,40C 172.056,39.6174 172.389,39.1174 172.5,38.5 Z"/></g>
<g><path style="opacity:0.475" fill="#8d1c16" d="M 212.5,40.5 C 214.656,40.8718 214.656,41.8718 212.5,43.5C 211.438,42.5754 211.438,41.5754 212.5,40.5 Z"/></g>
<g><path style="opacity:0.478" fill="#ac1419" d="M 256.5,46.5 C 256.167,46.5 255.833,46.5 255.5,46.5C 256.279,44.0728 257.446,44.0728 259,46.5C 259.667,47.8333 259.667,49.1667 259,50.5C 258.066,49.1416 257.232,47.8083 256.5,46.5 Z"/></g>
<g><path style="opacity:0.561" fill="#991619" d="M 293.5,44.5 C 295.196,44.6854 296.529,45.5187 297.5,47C 295.055,47.9098 293.722,47.0764 293.5,44.5 Z"/></g>
<g><path style="opacity:0.573" fill="#851416" d="M 255.5,46.5 C 255.833,46.5 256.167,46.5 256.5,46.5C 256.104,49.0444 256.771,51.2111 258.5,53C 257.789,54.2547 256.956,55.4214 256,56.5C 255.608,53.8121 255.108,51.1454 254.5,48.5C 254.543,47.5836 254.876,46.9169 255.5,46.5 Z"/></g>
<g><path style="opacity:0.196" fill="#4c0c0c" d="M 273.5,50.5 C 272.549,51.9187 272.216,53.5853 272.5,55.5C 271.207,53.6365 271.207,51.6365 272.5,49.5C 273.107,49.6236 273.44,49.9569 273.5,50.5 Z"/></g>
<g><path style="opacity:0.456" fill="#cd191f" d="M 273.5,50.5 C 275.023,52.5857 274.69,54.2524 272.5,55.5C 272.216,53.5853 272.549,51.9187 273.5,50.5 Z"/></g>
<g><path style="opacity:0.51" fill="#801716" d="M 309.5,57.5 C 309.5,58.1667 309.5,58.8333 309.5,59.5C 307.402,60.9143 306.402,60.2476 306.5,57.5C 307.5,57.5 308.5,57.5 309.5,57.5 Z"/></g>
<g><path style="opacity:0.071" fill="#b71b1e" d="M 251.5,58.5 C 252.833,58.5 254.167,58.5 255.5,58.5C 255.352,62.4909 253.686,63.3243 250.5,61C 251.252,60.3292 251.586,59.4959 251.5,58.5 Z"/></g>
<g><path style="opacity:0.094" fill="#310e08" d="M 195.5,65.5 C 196.797,66.8488 196.63,68.1821 195,69.5C 194.421,68.0715 194.588,66.7382 195.5,65.5 Z"/></g>
<g><path style="opacity:0.588" fill="#9f1317" d="M 201.5,66.5 C 202.376,66.3691 203.043,66.7025 203.5,67.5C 200.74,71.564 200.074,71.2307 201.5,66.5 Z"/></g>
<g><path style="opacity:0.588" fill="#7d1716" d="M 287.5,67.5 C 289.465,67.9483 289.798,68.9483 288.5,70.5C 286.481,69.8671 286.147,68.8671 287.5,67.5 Z"/></g>
<g><path style="opacity:0.537" fill="#791613" d="M 230.5,73.5 C 232.76,74.2376 232.927,75.2376 231,76.5C 230.517,75.552 230.351,74.552 230.5,73.5 Z"/></g>
<g><path style="opacity:0.333" fill="#731314" d="M 161.5,77.5 C 162.622,79.2884 162.789,81.2884 162,83.5C 161.505,81.5273 161.338,79.5273 161.5,77.5 Z"/></g>
<g><path style="opacity:0.29" fill="#4b0b0c" d="M 199.5,84.5 C 202.001,84.5109 202.168,85.1776 200,86.5C 199.536,85.9056 199.369,85.2389 199.5,84.5 Z"/></g>
<g><path style="opacity:0.357" fill="#580d0f" d="M 240.5,87.5 C 241.833,87.5 243.167,87.5 244.5,87.5C 244.5,88.5 244.5,89.5 244.5,90.5C 243.167,90.5 241.833,90.5 240.5,90.5C 240.5,89.5 240.5,88.5 240.5,87.5 Z"/></g>
<g><path style="opacity:0.396" fill="#8b1115" d="M 259.5,94.5 C 258.609,95.1098 257.609,95.4431 256.5,95.5C 257.221,93.6182 258.221,93.2848 259.5,94.5 Z"/></g>
<g><path style="opacity:0.384" fill="#310c08" d="M 259.5,94.5 C 259.496,96.8421 258.663,98.8421 257,100.5C 257.526,98.7725 257.359,97.1059 256.5,95.5C 257.609,95.4431 258.609,95.1098 259.5,94.5 Z"/></g>
<g><path style="opacity:0.482" fill="#911717" d="M 288.5,97.5 C 290.035,96.2121 291.701,96.2121 293.5,97.5C 291.905,98.4339 290.239,98.4339 288.5,97.5 Z"/></g>
<g><path style="opacity:0.195" fill="#3e0c08" d="M 119.5,103.5 C 119.5,103.167 119.5,102.833 119.5,102.5C 119.5,102.167 119.5,101.833 119.5,101.5C 120.167,101.5 120.5,101.167 120.5,100.5C 121.482,99.8592 122.482,99.1925 123.5,98.5C 123.236,100.498 121.903,102.165 119.5,103.5 Z"/></g>
<g><path style="opacity:0.635" fill="#5d1010" d="M 120.5,100.5 C 119.833,100.5 119.5,100.833 119.5,101.5C 118.167,101.833 118.167,102.167 119.5,102.5C 119.5,102.833 119.5,103.167 119.5,103.5C 114.496,105.735 114.163,104.569 118.5,100C 119.437,99.3083 120.103,99.475 120.5,100.5 Z"/></g>
<g><path style="opacity:0.561" fill="#9c1318" d="M 237.5,112.5 C 239.625,113.368 239.791,114.368 238,115.5C 236.317,114.824 236.15,113.824 237.5,112.5 Z"/></g>
<g><path style="opacity:0.224" fill="#300c08" d="M 151.5,133.5 C 156.021,133.326 156.355,133.993 152.5,135.5C 151.702,135.043 151.369,134.376 151.5,133.5 Z"/></g>
<g><path style="opacity:0.545" fill="#9d1318" d="M 277.5,136.5 C 278.376,136.369 279.043,136.702 279.5,137.5C 277.192,138.873 276.525,138.54 277.5,136.5 Z"/></g>
<g><path style="opacity:0.163" fill="#1f0803" d="M 169.5,140.5 C 169.5,140.833 169.5,141.167 169.5,141.5C 168.833,141.5 168.5,141.833 168.5,142.5C 168.5,142.833 168.5,143.167 168.5,143.5C 167.118,142.199 165.452,141.366 163.5,141C 165.402,139.204 167.402,139.037 169.5,140.5 Z"/></g>
<g><path style="opacity:0.616" fill="#821816" d="M 99.5,139.5 C 101.989,139.298 104.323,139.798 106.5,141C 104.567,141.251 102.734,141.751 101,142.5C 99.9614,141.756 99.4614,140.756 99.5,139.5 Z"/></g>
<g><path style="opacity:0.263" fill="#6a1111" d="M 169.5,140.5 C 171.121,140.787 172.121,141.787 172.5,143.5C 171.443,143.906 170.109,143.906 168.5,143.5C 168.5,143.167 168.5,142.833 168.5,142.5C 169.167,142.5 169.5,142.167 169.5,141.5C 169.5,141.167 169.5,140.833 169.5,140.5 Z"/></g>
<g><path style="opacity:0.376" fill="#b8161a" d="M 176.5,145.5 C 177.779,144.285 178.779,144.618 179.5,146.5C 178.391,146.443 177.391,146.11 176.5,145.5 Z"/></g>
<g><path style="opacity:0.357" fill="#310d07" d="M 176.5,145.5 C 177.391,146.11 178.391,146.443 179.5,146.5C 179.179,148.048 178.179,148.715 176.5,148.5C 176.5,147.5 176.5,146.5 176.5,145.5 Z"/></g>
<g><path style="opacity:0.518" fill="#981517" d="M 224.5,162.5 C 226.503,161.468 228.503,161.802 230.5,163.5C 228.243,164.77 226.243,164.436 224.5,162.5 Z"/></g>
<g><path style="opacity:0.224" fill="#2b0b06" d="M 136.5,172.5 C 135.833,172.5 135.5,172.167 135.5,171.5C 137.49,167.898 138.323,167.898 138,171.5C 137.617,172.056 137.117,172.389 136.5,172.5 Z"/></g>
<g><path style="opacity:0.361" fill="#801214" d="M 135.5,171.5 C 135.5,172.167 135.833,172.5 136.5,172.5C 135.746,174.446 134.412,175.279 132.5,175C 133.636,173.855 134.636,172.688 135.5,171.5 Z"/></g>
<g><path style="opacity:0.525" fill="#c11a1d" d="M 207.5,173.5 C 205.167,173.5 202.833,173.5 200.5,173.5C 200.5,173.167 200.5,172.833 200.5,172.5C 203.216,170.914 205.55,171.247 207.5,173.5 Z"/></g>
<g><path style="opacity:0.333" fill="#891416" d="M 200.5,174.5 C 200.5,174.167 200.5,173.833 200.5,173.5C 202.833,173.5 205.167,173.5 207.5,173.5C 207.631,174.376 207.298,175.043 206.5,175.5C 204.591,174.652 202.591,174.318 200.5,174.5 Z"/></g>
<g><path style="opacity:0.553" fill="#981a18" d="M 200.5,172.5 C 200.5,172.833 200.5,173.167 200.5,173.5C 200.5,173.833 200.5,174.167 200.5,174.5C 197.999,175.946 195.333,176.446 192.5,176C 194.867,174.155 197.533,172.989 200.5,172.5 Z"/></g>
<g><path style="opacity:0.545" fill="#941217" d="M 6.5,176.5 C 7.58617,176.62 8.25284,177.287 8.5,178.5C 8.16667,179.167 7.83333,179.833 7.5,180.5C 6.57131,179.311 6.23798,177.978 6.5,176.5 Z"/></g>
<g><path style="opacity:0.502" fill="#7e1215" d="M 163.5,180.5 C 165.093,179.133 166.426,179.466 167.5,181.5C 167.333,181.833 167.167,182.167 167,182.5C 165.887,181.695 164.721,181.028 163.5,180.5 Z"/></g>
<g><path style="opacity:0.373" fill="#761714" d="M 188.5,181.5 C 192.3,181.819 192.466,182.819 189,184.5C 188.25,183.874 187.416,183.374 186.5,183C 187.416,182.722 188.082,182.222 188.5,181.5 Z"/></g>
<g><path style="opacity:0.133" fill="#611112" d="M -0.5,190.5 C -0.5,189.833 -0.5,189.167 -0.5,188.5C 3.50846,187.892 3.50846,188.559 -0.5,190.5 Z"/></g>
<g><path style="opacity:0.294" fill="#43090a" d="M 172.5,194.5 C 172.167,194.5 171.833,194.5 171.5,194.5C 172.875,192.93 174.541,192.097 176.5,192C 175.529,193.481 174.196,194.315 172.5,194.5 Z"/></g>
<g><path style="opacity:0.467" fill="#691511" d="M 57.5,196.5 C 58.3764,196.369 59.0431,196.702 59.5,197.5C 57.1916,198.873 56.5249,198.54 57.5,196.5 Z"/></g>
<g><path style="opacity:0.275" fill="#7a1414" d="M 171.5,194.5 C 171.833,194.5 172.167,194.5 172.5,194.5C 170.884,197.482 168.55,198.482 165.5,197.5C 167.704,196.794 169.704,195.794 171.5,194.5 Z"/></g>
<g><path style="opacity:0.322" fill="#590b11" d="M 51.5,200.5 C 53.9732,200.947 54.1399,201.947 52,203.5C 51.5172,202.552 51.3505,201.552 51.5,200.5 Z"/></g>
</svg>
