<?xml version="1.0" encoding="UTF-8"?>
<!DOCTYPE svg PUBLIC "-//W3C//DTD SVG 1.1//EN" "http://www.w3.org/Graphics/SVG/1.1/DTD/svg11.dtd">
<svg xmlns="http://www.w3.org/2000/svg" version="1.1" width="61px" height="94px" style="shape-rendering:geometricPrecision; text-rendering:geometricPrecision; image-rendering:optimizeQuality; fill-rule:evenodd; clip-rule:evenodd" xmlns:xlink="http://www.w3.org/1999/xlink">
<g><path style="opacity:0.56" fill="#e51c22" d="M 45.5,-0.5 C 46.1667,-0.5 46.8333,-0.5 47.5,-0.5C 48.5045,0.682751 49.3378,2.01608 50,3.5C 53.6868,4.97414 56.8535,7.64081 59.5,11.5C 57.4224,13.3904 56.0891,15.7238 55.5,18.5C 53.604,19.4656 51.604,19.7989 49.5,19.5C 49.1119,21.6847 48.1119,23.518 46.5,25C 49.2918,26.953 51.9585,29.1197 54.5,31.5C 55.73,35.3742 57.73,38.7076 60.5,41.5C 60.5,42.8333 60.5,44.1667 60.5,45.5C 57.7533,49.1366 55.0867,52.97 52.5,57C 53.1007,58.605 54.1007,59.9384 55.5,61C 54.4464,62.3876 54.2797,63.8876 55,65.5C 55.7479,67.9087 56.9145,70.0754 58.5,72C 56.3992,75.582 55.0659,79.582 54.5,84C 55.3114,86.1052 56.3114,88.1052 57.5,90C 56.9293,91.5991 55.9293,92.7658 54.5,93.5C 52.8333,93.5 51.1667,93.5 49.5,93.5C 49.1667,92.1667 48.8333,92.1667 48.5,93.5C 47.8333,93.5 47.1667,93.5 46.5,93.5C 44.1139,91.4338 42.4473,88.7671 41.5,85.5C 38.3793,84.7739 35.7127,83.2739 33.5,81C 34.3567,80.3109 35.0233,79.4776 35.5,78.5C 34.1431,76.8144 32.8098,75.1477 31.5,73.5C 32.0431,73.44 32.3764,73.1067 32.5,72.5C 31.9588,70.4648 31.2922,68.4648 30.5,66.5C 29.5832,65.8728 28.5832,65.5394 27.5,65.5C 24.9162,64.9517 23.9162,63.285 24.5,60.5C 22.3792,60.6747 20.3792,60.3414 18.5,59.5C 19.1667,55.5 17.5,53.8333 13.5,54.5C 12.5255,55.635 11.3588,56.635 10,57.5C 10.1554,55.1893 10.1554,52.856 10,50.5C 7.87623,49.3783 6.0429,47.8783 4.5,46C 4.83333,45.6667 5.16667,45.3333 5.5,45C 2.96699,42.916 2.96699,40.916 5.5,39C 3.68415,37.6851 2.01748,36.1851 0.5,34.5C 4.47667,31.6908 8.31,28.6908 12,25.5C 13.57,26.3578 15.2367,27.0245 17,27.5C 18.7596,25.328 20.9262,23.6613 23.5,22.5C 24.3764,22.6309 25.0431,22.2975 25.5,21.5C 23.2337,18.28 23.2337,15.28 25.5,12.5C 25.4142,11.5041 25.7476,10.6708 26.5,10C 30.9833,8.00442 35.4833,6.17108 40,4.5C 40.772,4.6448 41.4387,4.97814 42,5.5C 42.6272,3.07267 43.7938,1.07267 45.5,-0.5 Z"/></g>
<g><path style="opacity:0.588" fill="#a21518" d="M 25.5,12.5 C 23.2337,15.28 23.2337,18.28 25.5,21.5C 25.0431,22.2975 24.3764,22.6309 23.5,22.5C 23.3083,19.3992 22.6416,16.3992 21.5,13.5C 22.6888,12.5713 24.0222,12.238 25.5,12.5 Z"/></g>
<g><path style="opacity:0.588" fill="#7d1815" d="M 13.5,54.5 C 17.5,53.8333 19.1667,55.5 18.5,59.5C 17.7321,58.7375 17.2321,57.7375 17,56.5C 15.6976,55.9152 14.531,55.2485 13.5,54.5 Z"/></g>
<g><path style="opacity:0.267" fill="#730f12" d="M 27.5,65.5 C 28.5832,65.5394 29.5832,65.8728 30.5,66.5C 31.2922,68.4648 31.9588,70.4648 32.5,72.5C 32.3764,73.1067 32.0431,73.44 31.5,73.5C 31.0378,70.3317 29.7044,67.665 27.5,65.5 Z"/></g>
</svg>
