<?xml version="1.0" encoding="UTF-8"?>
<!DOCTYPE svg PUBLIC "-//W3C//DTD SVG 1.1//EN" "http://www.w3.org/Graphics/SVG/1.1/DTD/svg11.dtd">
<svg xmlns="http://www.w3.org/2000/svg" version="1.1" width="40px" height="32px" style="shape-rendering:geometricPrecision; text-rendering:geometricPrecision; image-rendering:optimizeQuality; fill-rule:evenodd; clip-rule:evenodd" xmlns:xlink="http://www.w3.org/1999/xlink">
<g><path style="opacity:0.559" fill="#c91b1f" d="M 6.5,-0.5 C 7.16667,-0.5 7.83333,-0.5 8.5,-0.5C 13.2553,4.64958 13.5886,10.1496 9.5,16C 10.4353,18.0311 9.93525,19.8644 8,21.5C 6.79278,17.1331 5.45944,12.7998 4,8.5C 2.38533,7.61381 0.885333,6.61381 -0.5,5.5C -0.5,4.5 -0.5,3.5 -0.5,2.5C 0.930472,2.42082 2.26381,2.75415 3.5,3.5C 4.52435,2.14819 5.52435,0.814858 6.5,-0.5 Z"/></g>
<g><path style="opacity:0.267" fill="#761513" d="M 39.5,30.5 C 39.5,30.8333 39.5,31.1667 39.5,31.5C 38.5,31.5 37.5,31.5 36.5,31.5C 37.1054,29.5188 38.1054,29.1854 39.5,30.5 Z"/></g>
</svg>
