<?xml version="1.0" encoding="UTF-8"?>
<!DOCTYPE svg PUBLIC "-//W3C//DTD SVG 1.1//EN" "http://www.w3.org/Graphics/SVG/1.1/DTD/svg11.dtd">
<svg xmlns="http://www.w3.org/2000/svg" version="1.1" width="6px" height="6px" style="shape-rendering:geometricPrecision; text-rendering:geometricPrecision; image-rendering:optimizeQuality; fill-rule:evenodd; clip-rule:evenodd" xmlns:xlink="http://www.w3.org/1999/xlink">
<g><path style="opacity:0.518" fill="#851216" d="M 3.5,-0.5 C 4.16667,-0.5 4.83333,-0.5 5.5,-0.5C 5.5,-0.166667 5.5,0.166667 5.5,0.5C 4.83333,0.5 4.5,0.833333 4.5,1.5C 3.16667,1.83333 1.83333,2.16667 0.5,2.5C 1.30646,1.27187 2.30646,0.271873 3.5,-0.5 Z"/></g>
<g><path style="opacity:0.341" fill="#da1a21" d="M 4.5,1.5 C 4.16667,2.5 3.5,3.16667 2.5,3.5C 2.16667,3.5 1.83333,3.5 1.5,3.5C 0.833333,3.5 0.5,3.16667 0.5,2.5C 1.83333,2.16667 3.16667,1.83333 4.5,1.5 Z"/></g>
<g><path style="opacity:0.561" fill="#ac151a" d="M -0.5,2.5 C -0.166667,2.5 0.166667,2.5 0.5,2.5C 0.5,3.16667 0.833333,3.5 1.5,3.5C 1.5,4.16667 1.16667,4.5 0.5,4.5C 0.166667,4.5 -0.166667,4.5 -0.5,4.5C -0.5,3.83333 -0.5,3.16667 -0.5,2.5 Z"/></g>
<g><path style="opacity:0.404" fill="#9f1318" d="M 1.5,3.5 C 1.83333,3.5 2.16667,3.5 2.5,3.5C 2.5,4.16667 2.5,4.83333 2.5,5.5C 1.83333,5.5 1.16667,5.5 0.5,5.5C 0.5,5.16667 0.5,4.83333 0.5,4.5C 1.16667,4.5 1.5,4.16667 1.5,3.5 Z"/></g>
</svg>
