<?xml version="1.0" encoding="UTF-8"?>
<!DOCTYPE svg PUBLIC "-//W3C//DTD SVG 1.1//EN" "http://www.w3.org/Graphics/SVG/1.1/DTD/svg11.dtd">
<svg xmlns="http://www.w3.org/2000/svg" version="1.1" width="54px" height="40px" style="shape-rendering:geometricPrecision; text-rendering:geometricPrecision; image-rendering:optimizeQuality; fill-rule:evenodd; clip-rule:evenodd" xmlns:xlink="http://www.w3.org/1999/xlink">
<g><path style="opacity:0.559" fill="#e21c22" d="M 13.5,-0.5 C 13.8333,-0.5 14.1667,-0.5 14.5,-0.5C 16.1643,0.999004 18.1643,1.999 20.5,2.5C 24.2133,1.22232 27.88,0.222319 31.5,-0.5C 32.8333,-0.5 34.1667,-0.5 35.5,-0.5C 41.6659,2.20451 47.6659,5.20451 53.5,8.5C 53.5,9.5 53.5,10.5 53.5,11.5C 51.282,13.641 48.9486,15.8077 46.5,18C 47.4303,19.1939 48.0969,20.5272 48.5,22C 46.2726,24.2904 44.2726,26.7904 42.5,29.5C 43.4841,34.535 41.4841,37.8683 36.5,39.5C 35.8333,39.5 35.1667,39.5 34.5,39.5C 32.2995,37.3596 29.6328,35.8596 26.5,35C 18.2275,25.8875 9.22749,17.7209 -0.5,10.5C -0.5,10.1667 -0.5,9.83333 -0.5,9.5C 0.558465,8.39977 1.3918,7.06644 2,5.5C 3.89738,7.66528 6.06405,8.33194 8.5,7.5C 9.02527,6.80762 9.69194,6.30762 10.5,6C 9.97814,5.4387 9.6448,4.77203 9.5,4C 11.0182,2.64943 12.3515,1.14943 13.5,-0.5 Z"/></g>
</svg>
